<?xml version="1.0" encoding="utf-8"?>
<!-- Generator: Adobe Illustrator 18.0.0, SVG Export Plug-In . SVG Version: 6.00 Build 0)  -->
<!DOCTYPE svg PUBLIC "-//W3C//DTD SVG 1.1//EN" "http://www.w3.org/Graphics/SVG/1.1/DTD/svg11.dtd">
<svg version="1.1" id="Layer_1" xmlns="http://www.w3.org/2000/svg" xmlns:xlink="http://www.w3.org/1999/xlink" x="0px" y="0px"
	 viewBox="0 0 50 50" enable-background="new 0 0 50 50" xml:space="preserve">
<g id="XMLID_21_">
	<path id="XMLID_24_" d="M16.6,30.9c-0.2,0-0.4,0-0.6,0c-0.6,0-1.1-0.1-1.7-0.2L1.9,43.2c-0.6,0.6-0.6,1.6,0,2.2l3.2,3.2
		c0.6,0.6,1.6,0.6,2.2,0l15-15l-2.8-3L16.6,30.9z"/>
	<path id="XMLID_23_" d="M49.4,11c-0.6-0.6-1.5-0.6-2.1,0L39.2,19c-0.8,0.8-2,0.8-2.8,0c-0.8-0.8-0.8-2,0-2.8l8-8
		c0.6-0.6,0.6-1.6,0-2.2c-0.6-0.6-1.6-0.6-2.2,0l-8,8c-0.8,0.8-2,0.8-2.8,0c-0.8-0.8-0.8-2,0-2.8l8.1-8.1c0.6-0.6,0.6-1.5,0-2.1
		c-0.6-0.6-1.5-0.6-2.1,0l-9.1,9.1c-2.2,2.2-2.9,5.3-2.2,8.1l6.1,6.1c2.8,0.7,5.9,0,8-2.2l9.1-9.1C50,12.5,50,11.6,49.4,11z"/>
	<path id="XMLID_22_" d="M5.3,1.9C5,1.6,4.5,1.4,4.1,1.4c-0.1,0-0.2,0-0.3,0c-0.5,0.1-1,0.4-1.2,0.9C0,7.9,1.1,14.5,5.4,18.8
		l7.7,7.7c0.8,0.8,1.8,1.2,2.9,1.2c0.1,0,0.2,0,0.3,0l4.5-0.4l19.6,21.1c0.3,0.3,0.7,0.5,1.2,0.5c0,0,0,0,0,0c0.4,0,0.9-0.2,1.2-0.5
		l3.4-3.4c0.3-0.3,0.5-0.7,0.5-1.2c0-0.4-0.2-0.9-0.5-1.2L5.3,1.9z"/>
</g>
</svg>
