<?xml version="1.0" encoding="utf-8"?>
<!-- Generator: Adobe Illustrator 18.0.0, SVG Export Plug-In . SVG Version: 6.00 Build 0)  -->
<!DOCTYPE svg PUBLIC "-//W3C//DTD SVG 1.1//EN" "http://www.w3.org/Graphics/SVG/1.1/DTD/svg11.dtd">
<svg version="1.1" id="Layer_1" xmlns="http://www.w3.org/2000/svg" xmlns:xlink="http://www.w3.org/1999/xlink" x="0px" y="0px"
	 viewBox="0 0 50 50" enable-background="new 0 0 50 50" xml:space="preserve">
<g>
	<path d="M38.5,2.3c-3.7-1.2-8.6-1.9-13.8-1.9c-5.2,0-10.1,0.7-13.8,1.9C5.5,4.1,4.4,6.5,4.4,8.1v5.1c0,1.7,1.1,4.1,6.6,5.8
		c2.3,0.8,5.1,1.3,8.2,1.6c0.7,5.4,0.9,9.5,0.6,14.2c-4.5,1.2-7.4,3.8-7.4,6.8c0,4.2,5.5,7.5,12.4,7.5s12.4-3.3,12.4-7.5
		c0-3.1-2.9-5.7-7.4-6.9c-0.4-4.7-0.2-8.6,0.6-14.2c3.1-0.3,5.9-0.8,8.2-1.6c5.5-1.8,6.6-4.2,6.6-5.8V8.1C45.1,6.5,44,4.1,38.5,2.3z
		 M11.9,5.3c3.4-1.1,7.9-1.7,12.8-1.7s9.4,0.6,12.8,1.7c3.2,1.1,4.4,2.3,4.4,2.8s-1.2,1.8-4.4,2.8c-3.4,1.1-7.9,1.7-12.8,1.7
		s-9.4-0.6-12.8-1.7C8.7,9.9,7.5,8.7,7.5,8.1S8.7,6.4,11.9,5.3z M34,41.7c0,2-4,4.3-9.3,4.3c-5.3,0-9.3-2.3-9.3-4.3
		c0-1.3,1.6-2.6,3.9-3.4c-0.1,1-0.3,2-0.4,3.1c-0.1,0.6,0.2,1.2,0.6,1.5c0.9,0.7,3,1,5.1,1s4.2-0.3,5.1-1c0.5-0.3,0.7-0.9,0.6-1.5
		c-0.2-1.1-0.3-2.1-0.4-3.1C32.4,39,34,40.4,34,41.7z M27.2,40.5c-1.3,0.2-3.6,0.2-4.9,0c1-7.4,1-12.4,0.1-19.7c0.8,0,1.6,0,2.4,0
		c0.8,0,1.6,0,2.4,0C26.1,28.2,26.2,33.1,27.2,40.5z M37.5,16c-3.4,1.1-7.9,1.7-12.8,1.7s-9.4-0.6-12.8-1.7
		c-3.2-1.1-4.4-2.3-4.4-2.8v-0.7c0.9,0.5,2,1,3.4,1.5c3.7,1.2,8.6,1.9,13.8,1.9c5.2,0,10.1-0.7,13.8-1.9c1.4-0.5,2.5-1,3.4-1.5v0.7
		C41.9,13.8,40.8,15,37.5,16z"/>
</g>
</svg>
