<?xml version="1.0" encoding="utf-8"?>
<!-- Generator: Adobe Illustrator 18.0.0, SVG Export Plug-In . SVG Version: 6.00 Build 0)  -->
<!DOCTYPE svg PUBLIC "-//W3C//DTD SVG 1.1//EN" "http://www.w3.org/Graphics/SVG/1.1/DTD/svg11.dtd">
<svg version="1.1" id="Layer_1" xmlns="http://www.w3.org/2000/svg" xmlns:xlink="http://www.w3.org/1999/xlink" x="0px" y="0px"
	 viewBox="0 0 50 50" enable-background="new 0 0 50 50" xml:space="preserve">
<g>
	<path d="M36.4,12.1c-2.3,0-4.4,1.1-5.7,2.8c-1-1.3-2.5-2.3-4.2-2.6c-0.7-4.9-4.9-8.6-9.9-8.6h0c-0.9,0-1.6,0.7-1.6,1.6
		c0,0.9,0.7,1.6,1.6,1.6c3.4,0,6.2,2.4,6.8,5.6c-1.6,0.4-3,1.3-4,2.6c-1.3-1.7-3.4-2.8-5.7-2.8c-4,0-7.3,3.3-7.3,7.3
		c0,3.6,2.7,6.7,6.2,7.2c-0.3,0.8-0.5,1.7-0.5,2.6c0,3.6,2.7,6.6,6.2,7.2c-0.3,0.8-0.5,1.8-0.5,2.7c0,4,3.3,7.3,7.3,7.3
		c4,0,7.3-3.3,7.3-7.3c0-1-0.2-1.9-0.5-2.7c3.5-0.5,6.3-3.5,6.3-7.2c0-0.9-0.2-1.8-0.5-2.6c3.5-0.5,6.2-3.5,6.2-7.2
		C43.6,15.4,40.4,12.1,36.4,12.1z M25,15.2c2.3,0,4.1,1.9,4.1,4.1c0,1.4-0.7,2.6-1.7,3.4c-0.2,0.1-0.4,0.2-0.6,0.4
		c-0.5,0.2-1.1,0.4-1.7,0.4c-0.6,0-1.2-0.1-1.7-0.4c-0.2-0.1-0.4-0.3-0.6-0.4c-1.1-0.8-1.7-2-1.7-3.4C20.9,17.1,22.7,15.2,25,15.2z
		 M9.5,19.4c0-2.3,1.9-4.1,4.1-4.1c2.3,0,4.1,1.9,4.1,4.1c0,1.4-0.7,2.6-1.7,3.4c-0.2,0.1-0.4,0.2-0.6,0.4c-0.5,0.2-1.1,0.4-1.7,0.4
		C11.3,23.5,9.5,21.7,9.5,19.4z M15.2,29.2c0-1.4,0.7-2.6,1.7-3.4c0.2-0.1,0.4-0.2,0.6-0.4c0.5-0.2,1.1-0.4,1.7-0.4
		c0.6,0,1.2,0.1,1.7,0.4c0.2,0.1,0.4,0.3,0.6,0.4c1.1,0.8,1.7,2,1.7,3.4c0,2.3-1.9,4.1-4.1,4.1C17,33.3,15.2,31.5,15.2,29.2z
		 M24.9,43.2c-2.3,0-4.1-1.9-4.1-4.1s1.9-4.1,4.1-4.1c2.3,0,4.1,1.9,4.1,4.1C29.1,41.4,27.2,43.2,24.9,43.2z M30.7,33.3
		c-2.3,0-4.1-1.9-4.1-4.1c0-1.4,0.7-2.6,1.7-3.4c0.2-0.1,0.4-0.2,0.6-0.4c0.5-0.2,1.1-0.4,1.7-0.4c0.6,0,1.2,0.1,1.7,0.4
		c0.2,0.1,0.4,0.3,0.6,0.4c1.1,0.8,1.7,2,1.7,3.4C34.8,31.5,33,33.3,30.7,33.3z M36.4,23.5c-0.6,0-1.2-0.1-1.7-0.4
		c-0.2-0.1-0.4-0.3-0.6-0.4c-1.1-0.8-1.7-2-1.7-3.4c0-2.3,1.9-4.1,4.1-4.1c2.3,0,4.1,1.9,4.1,4.1C40.5,21.7,38.7,23.5,36.4,23.5z"/>
</g>
</svg>
