<!-- Generator: Adobe Illustrator 18.1.1, SVG Export Plug-In  -->
<svg version="1.1"
	 xmlns="http://www.w3.org/2000/svg" xmlns:xlink="http://www.w3.org/1999/xlink" xmlns:a="http://ns.adobe.com/AdobeSVGViewerExtensions/3.0/"
	 x="0px" y="0px" viewBox="0 0 21.2 22.6" enable-background="new 0 0 21.2 22.6"
	 xml:space="preserve">
<defs>
</defs>
<path fill="#FFFFFF" d="M18.4,0.4C18.3,0.1,18,0,17.8,0H3.4C3.2,0,2.9,0.1,2.8,0.4C1,3.3,0,7.2,0,11.2c0,4.1,1,8,2.9,11
	c0.1,0.2,0.4,0.3,0.6,0.3h14.1c0.3,0,0.5-0.1,0.6-0.3c1.9-3,2.9-6.9,2.9-11C21.2,7.2,20.2,3.3,18.4,0.4z M17.3,1.5
	c0.5,0.9,0.9,1.9,1.3,2.9h-1.8c-0.2-1-0.4-2-0.7-2.9H17.3z M11.3,1.5h3.2c0.3,0.9,0.6,1.9,0.8,2.9h-4V1.5z M6.6,1.5h3.2v2.9h-4
	C6.1,3.4,6.3,2.4,6.6,1.5z M3.8,1.5h1.2C4.8,2.4,4.5,3.4,4.3,4.4H2.6C2.9,3.3,3.3,2.4,3.8,1.5z M1.5,11.2c0-1.8,0.2-3.6,0.6-5.3h1.9
	c-0.2,1.7-0.4,3.5-0.4,5.3c0,1.9,0.1,3.8,0.4,5.5H2.2C1.7,15,1.5,13.1,1.5,11.2z M4,21.1c-0.5-0.9-1-1.9-1.3-2.9h1.7
	c0.2,1,0.5,2,0.8,2.9H4z M5.2,11.2c0-1.8,0.1-3.6,0.4-5.3h4.3v10.8H5.6C5.3,15,5.2,13.1,5.2,11.2z M9.8,21.1H6.7
	c-0.3-0.9-0.6-1.9-0.8-2.9h4V21.1z M14.5,21.1h-3.1v-2.9h4C15.1,19.2,14.8,20.2,14.5,21.1z M15.6,16.7h-4.2V5.9h4.3
	c0.3,1.7,0.4,3.5,0.4,5.3C16,13.1,15.8,15,15.6,16.7z M17.2,21.1h-1.2c0.3-0.9,0.6-1.9,0.8-2.9h1.7C18.2,19.2,17.7,20.2,17.2,21.1z
	 M17.1,16.7c0.3-1.7,0.4-3.6,0.4-5.5c0-1.8-0.1-3.6-0.4-5.3H19c0.4,1.7,0.6,3.5,0.6,5.3c0,1.9-0.2,3.8-0.7,5.5H17.1z"/>
</svg>
