<?xml version="1.0" encoding="utf-8"?>
<!-- Generator: Adobe Illustrator 18.0.0, SVG Export Plug-In . SVG Version: 6.00 Build 0)  -->
<!DOCTYPE svg PUBLIC "-//W3C//DTD SVG 1.1//EN" "http://www.w3.org/Graphics/SVG/1.1/DTD/svg11.dtd">
<svg version="1.1" id="Layer_1" xmlns="http://www.w3.org/2000/svg" xmlns:xlink="http://www.w3.org/1999/xlink" x="0px" y="0px"
	 viewBox="0 0 50 50" enable-background="new 0 0 50 50" xml:space="preserve">
<path d="M42.2,1.5c-0.3-0.5-0.8-0.8-1.4-0.8H10C9.4,0.8,8.9,1,8.6,1.5c-3.9,6.3-6,14.6-6,23.3c0,8.9,2.2,17.3,6.2,23.7
	c0.3,0.5,0.8,0.8,1.4,0.8h30.3c0.6,0,1.1-0.3,1.4-0.8c4-6.4,6.2-14.8,6.2-23.7C48.2,16.1,46,7.9,42.2,1.5z M39.9,4
	c1.1,1.9,2,4,2.8,6.2h-3.8c-0.4-2.2-1-4.3-1.6-6.2H39.9z M27,4h6.9c0.7,1.9,1.2,4,1.7,6.2H27V4z M16.9,4h6.9v6.2h-8.6
	C15.7,8,16.2,5.9,16.9,4z M10.9,4h2.6c-0.6,1.9-1.2,4-1.6,6.2H8.2C8.9,8,9.8,5.9,10.9,4z M5.9,24.8c0-4,0.5-7.8,1.4-11.4h4.2
	c-0.5,3.6-0.8,7.5-0.8,11.4c0,4.1,0.3,8.1,0.9,11.8H7.3C6.4,32.9,5.9,28.9,5.9,24.8z M11.1,46c-1.1-1.9-2.1-4-2.8-6.2H12
	c0.4,2.2,1,4.3,1.6,6.2H11.1z M13.8,24.8c0-4,0.3-7.8,0.8-11.4h9.2v23.2h-9.1C14.1,32.9,13.8,28.9,13.8,24.8z M23.8,46H17
	c-0.7-1.9-1.3-4-1.7-6.2h8.5V46z M33.8,46H27v-6.2h8.5C35.1,42,34.5,44.1,33.8,46z M36.1,36.6H27V13.4h9.2C36.7,17,37,20.8,37,24.8
	C37,28.9,36.7,32.9,36.1,36.6z M39.7,46h-2.5c0.6-1.9,1.2-4,1.6-6.2h3.7C41.7,42,40.8,44.1,39.7,46z M39.4,36.6
	c0.6-3.7,0.9-7.7,0.9-11.8c0-3.9-0.3-7.8-0.8-11.4h4.2C44.5,17,45,20.8,45,24.8c0,4.1-0.5,8.1-1.5,11.8H39.4z"/>
</svg>
