<!-- Generator: Adobe Illustrator 18.1.1, SVG Export Plug-In  -->
<svg version="1.1"
	 xmlns="http://www.w3.org/2000/svg" xmlns:xlink="http://www.w3.org/1999/xlink" xmlns:a="http://ns.adobe.com/AdobeSVGViewerExtensions/3.0/"
	 x="0px" y="0px" viewBox="0 0 24.2 21" enable-background="new 0 0 24.2 21" xml:space="preserve">
<defs>
</defs>
<path fill="#FFFFFF" d="M4.8,13.2v6.9c0,0.4,0.3,0.8,0.7,0.9h14.2c0.4-0.1,0.7-0.5,0.7-0.9v-7.4c1.2-0.6,2.3-1.5,2.9-2.6
	c1.3-2.4,1.4-4.7,0.3-6.5c-1.1-1.8-3.2-2.8-5.8-2.8c-1.9,0-3.5,0.8-4.9,1.9C11.6,1.2,9.2-0.1,6.7,0C5,0,2.7,0.6,1,3.3
	C0.1,4.6-0.2,6.1,0.2,7.5C0.8,10.3,3.7,12.4,4.8,13.2z M2.7,4.4c1-1.5,2.4-2.3,4.1-2.4c1.8,0,3.6,0.9,4.5,1.8C9.9,5.3,9,6.6,9,6.7
	C8.7,7.2,8.8,7.9,9.3,8.1c0.5,0.3,1.1,0.1,1.4-0.3c0-0.1,3.2-5.1,7-5.1c1.9,0,3.4,0.7,4.1,1.9c0.7,1.2,0.6,2.8-0.3,4.5
	c-1.7,3.2-8.9,3.3-11.5,3.1c-0.6,0-1.1,0.4-1.1,0.9c0,0.6,0.4,1.1,0.9,1.1c0.1,0,0.9,0.1,2,0.1c1.7,0,4.3-0.1,6.6-0.8V19H6.9v-6.4
	c0-0.4-0.2-0.7-0.5-0.9c0,0-3.6-2-4.2-4.6C1.9,6.2,2.1,5.3,2.7,4.4z"/>
</svg>
