<?xml version="1.0" encoding="utf-8"?>
<!-- Generator: Adobe Illustrator 18.0.0, SVG Export Plug-In . SVG Version: 6.00 Build 0)  -->
<!DOCTYPE svg PUBLIC "-//W3C//DTD SVG 1.1//EN" "http://www.w3.org/Graphics/SVG/1.1/DTD/svg11.dtd">
<svg version="1.1" id="Layer_1" xmlns="http://www.w3.org/2000/svg" xmlns:xlink="http://www.w3.org/1999/xlink" x="0px" y="0px"
	 viewBox="0 0 50 50" enable-background="new 0 0 50 50" xml:space="preserve">
<path d="M10.8,30.2v13.5c0,0.8,0.5,1.5,1.3,1.8h27.7c0.8-0.3,1.3-1,1.3-1.8V29.2c2.4-1.2,4.4-2.9,5.6-5.1c2.5-4.7,2.7-9.2,0.5-12.7
	C45.1,7.8,41,5.8,35.9,5.8c-3.6,0-6.9,1.6-9.6,3.6c-2.4-2.6-7-5.1-11.9-4.9c-3.2,0.1-7.7,1.3-11.1,6.4c-1.8,2.6-2.3,5.5-1.6,8.3
	C2.9,24.7,8.5,28.7,10.8,30.2z M6.5,13.1c2-3,4.7-4.6,7.9-4.6c3.5-0.1,7.1,1.7,8.8,3.6c-2.7,2.7-4.3,5.4-4.5,5.6
	c-0.6,0.9-0.3,2.2,0.7,2.7c0.9,0.6,2.2,0.3,2.7-0.7c0.1-0.1,6.2-10,13.7-10c3.7,0,6.6,1.3,7.9,3.6c1.4,2.3,1.1,5.4-0.7,8.8
	c-3.3,6.2-17.3,6.4-22.5,6c-1.1-0.1-2.1,0.7-2.1,1.8c-0.1,1.1,0.7,2.1,1.8,2.1c0.2,0,1.7,0.1,3.9,0.1c3.3,0,8.3-0.3,12.8-1.6v11
	H14.8V29.1c0-0.7-0.4-1.4-1-1.7c-0.1,0-7-4-8.3-9.1C5,16.5,5.4,14.8,6.5,13.1z"/>
</svg>