<!-- Generator: Adobe Illustrator 18.1.1, SVG Export Plug-In  -->
<svg version="1.1"
	 xmlns="http://www.w3.org/2000/svg" xmlns:xlink="http://www.w3.org/1999/xlink" xmlns:a="http://ns.adobe.com/AdobeSVGViewerExtensions/3.0/"
	 x="0px" y="0px" width="28px" height="28px" viewBox="0 0 28 28" enable-background="new 0 0 28 28" xml:space="preserve">
<defs>
</defs>
<g>
	<g>
		<g>
			<g>
				<path fill="#BDBDBD" d="M17.2,8c0.2,0,0.5,0.2,0.5,0.5v1.5v0.4l0.3,0.3l7.9,8.4c0.4,0.4,0.6,0.9,0.6,1.4v2.3
					c0,0.7-0.6,1.3-1.3,1.3h-0.6h-1v1v1.5c0,0.3-0.2,0.5-0.5,0.5c-0.3,0-0.5-0.2-0.5-0.5v-1.5v-1h-1H6.4h-1v1v1.5
					C5.4,26.8,5.2,27,5,27c-0.3,0-0.5-0.2-0.5-0.5v-1.5v-1h-1H2.9c-0.7,0-1.3-0.6-1.3-1.3v-2.3c0-0.5,0.2-1,0.6-1.4l7.9-8.4l0.3-0.3
					V9.9V8.5c0-0.3,0.2-0.5,0.5-0.5c0.3,0,0.5,0.2,0.5,0.5v1.5v1h1h3.5h1v-1V8.5C16.7,8.2,17,8,17.2,8 M14,23.2
					c3.1,0,5.7-2.5,5.7-5.7c0-3.1-2.5-5.7-5.7-5.7c-3.1,0-5.7,2.5-5.7,5.7C8.3,20.6,10.9,23.2,14,23.2 M17.2,7
					c-0.8,0-1.5,0.7-1.5,1.5v1.5h-3.5V8.5c0-0.8-0.7-1.5-1.5-1.5C10,7,9.3,7.7,9.3,8.5v1.5l-7.9,8.4c-0.5,0.5-0.9,1.3-0.9,2.1v2.3
					c0,1.3,1,2.3,2.3,2.3h0.6v1.5C3.5,27.3,4.2,28,5,28c0.8,0,1.5-0.7,1.5-1.5v-1.5h15.2v1.5c0,0.8,0.7,1.5,1.5,1.5
					c0.8,0,1.5-0.7,1.5-1.5v-1.5h0.6c1.3,0,2.3-1,2.3-2.3v-2.3c0-0.8-0.3-1.6-0.9-2.1l-7.9-8.4V8.5C18.7,7.7,18,7,17.2,7L17.2,7z
					 M14,22.2c-2.6,0-4.7-2.1-4.7-4.7s2.1-4.7,4.7-4.7c2.6,0,4.7,2.1,4.7,4.7S16.6,22.2,14,22.2L14,22.2z"/>
			</g>
			<g>
				<path fill="#BDBDBD" d="M14,1c5.2,0,9.6,1,11.1,2.4c1.3,1.3,1.7,3.8,1.9,5.2c0,0,0,0.1,0,0.1c0,0.1-0.1,0.2-0.1,0.2
					c-0.2,0-2.8-0.2-4.5-0.4l0,0l-0.1,0l-0.1,0c-0.1,0-0.2-0.1-0.2-0.2l0-2.3c0-1.3-1-2.3-2.3-2.3H8.3C7,3.7,6,4.7,6,5.9l0,2.3
					c0,0.1-0.1,0.2-0.2,0.2l-0.1,0l-0.1,0l-0.1,0C3.9,8.6,1.3,8.8,1.2,8.8C1.1,8.8,1,8.7,1,8.7c0,0,0-0.1,0-0.1l0,0l0,0
					c0.1-1.4,0.6-3.8,1.9-5.1C4.4,2,8.8,1,14,1 M14,0C9,0,4,0.9,2.2,2.7C0.7,4.1,0.2,6.8,0,8.4c0,0,0,0.2,0,0.2
					c0,0.6,0.5,1.2,1.2,1.2c0.1,0,2.9-0.2,4.6-0.4c0,0,0.1,0,0.1,0C6.5,9.4,7,8.9,7,8.2l0-2.3c0-0.7,0.6-1.3,1.3-1.3h11.4
					c0.7,0,1.3,0.6,1.3,1.3l0,2.3c0,0.6,0.5,1.1,1.1,1.2c0,0,0.1,0,0.1,0c1.7,0.1,4.5,0.4,4.6,0.4c0.6,0,1.2-0.5,1.2-1.2
					c0-0.1,0-0.2,0-0.2c-0.2-1.7-0.7-4.3-2.2-5.7C24,0.9,19,0,14,0L14,0z"/>
			</g>
		</g>
	</g>
</g>
</svg>
