<!-- Generator: Adobe Illustrator 18.1.1, SVG Export Plug-In  -->
<svg version="1.1"
	 xmlns="http://www.w3.org/2000/svg" xmlns:xlink="http://www.w3.org/1999/xlink" xmlns:a="http://ns.adobe.com/AdobeSVGViewerExtensions/3.0/"
	 x="0px" y="0px" width="22.2px" height="26.4px" viewBox="0 0 22.2 26.4" enable-background="new 0 0 22.2 26.4"
	 xml:space="preserve">
<defs>
</defs>
<g>
	<g>
		<path fill="none" stroke="#BDBDBD" stroke-miterlimit="10" d="M11.1,3.1c2.1,0,4.1,0.8,5.6,2.3c1.5,1.5,2.3,3.4,2.3,5.5
			s-0.8,4-2.3,5.5l-5.6,5.5l-5.6-5.5C4,14.9,3.1,13,3.1,10.9s0.8-4,2.3-5.5C7,4,9,3.1,11.1,3.1 M11.1,0.5c-2.7,0-5.4,1-7.5,3.1
			c-4.1,4.1-4.1,10.7,0,14.7l7.5,7.4l7.5-7.4c4.1-4.1,4.1-10.7,0-14.7C16.5,1.5,13.8,0.5,11.1,0.5z"/>
	</g>
</g>
</svg>
