<!-- Generator: Adobe Illustrator 18.1.1, SVG Export Plug-In  -->
<svg version="1.1"
	 xmlns="http://www.w3.org/2000/svg" xmlns:xlink="http://www.w3.org/1999/xlink" xmlns:a="http://ns.adobe.com/AdobeSVGViewerExtensions/3.0/"
	 x="0px" y="0px" viewBox="0 0 22 15.9" enable-background="new 0 0 22 15.9" xml:space="preserve">
<defs>
</defs>
<g>
	<g>
		<path fill="#650D15" d="M7.4,15.9c-1.8,0-3.3-0.8-3.7-2.6C3.2,11.3,3,9.2,4,7.2C4.4,6.5,5,6,5.7,5.6c0.7-0.4,1.2-0.9,1-1.8
			c-0.1-0.3,0.1-0.6,0-1c0-0.2-0.2-0.3-0.4-0.4C6.2,2.5,6,2.7,6,2.8c0.1,1.3-0.7,2-1.7,2.5C3.7,5.6,3.1,5.8,2.4,5.9
			c-0.6,0.1-1.2,0-1.7-0.4c-1-0.8-1-2.3,0.2-3.1c0.8-0.5,1.7-0.9,2.6-1.2C5.8,0.4,8.2,0.1,10.6,0c1.5,0,2.9,0.2,4.4,0.3
			c1.9,0.2,3.7,0.8,5.5,1.7c0.5,0.2,1,0.6,1.2,1.1c0.8,1.4-0.2,2.9-1.8,2.8c-1.2-0.1-2.4-0.5-3.3-1.4C16.1,4.1,15.9,3.6,16,3
			c0-0.1,0-0.3,0-0.4c-0.1-0.1-0.2-0.2-0.4-0.3c-0.1,0-0.2,0.2-0.3,0.3c0,0.1,0,0.3,0,0.5c0,0.2,0.1,0.5,0,0.7
			c-0.2,0.8,0.3,1.3,0.9,1.6c0.9,0.6,1.7,1.3,2.1,2.3c0.3,0.9,0.4,4.7,0,5.6c-0.6,1.5-1.8,2.6-3.7,2.5C14,15.9,8.6,15.9,7.4,15.9z
			 M11,11.8c1.4-0.1,2.6-0.5,3.6-1.5c1-1,1-2.2,0.3-3.4c-0.5-0.7-1.1-1.1-1.8-1.4c-1.9-0.8-4.2-0.4-5.5,0.9c-1.2,1.2-1.2,2.7,0,3.9
			C8.5,11.4,9.7,11.7,11,11.8z M11,2L11,2c-0.6,0-1.3,0-1.9,0C8.7,2,8.6,2.2,8.6,2.6c0,0.1,0,0.2,0,0.3c0,0.2,0.1,0.3,0.1,0.5
			C8.8,3.3,9,3.2,9.1,3.2c1-0.6,2.8-0.6,3.7,0c0.1,0.1,0.3,0.1,0.4,0.2c0-0.2,0.1-0.3,0.1-0.5c0-0.1,0-0.2,0-0.3
			c0-0.4-0.2-0.5-0.6-0.5C12.2,2,11.6,2,11,2z"/>
		<path fill="#650D15" d="M11.2,10c-0.9,0-1.5-0.2-2-0.6c-0.8-0.7-0.8-1.7,0-2.5c0.9-0.8,2.6-0.8,3.5-0.1c1,0.8,0.9,2.1-0.2,2.7
			C12,9.8,11.5,9.9,11.2,10z"/>
	</g>
</g>
</svg>
