<!-- Generator: Adobe Illustrator 18.1.1, SVG Export Plug-In  -->
<svg version="1.1"
	 xmlns="http://www.w3.org/2000/svg" xmlns:xlink="http://www.w3.org/1999/xlink" xmlns:a="http://ns.adobe.com/AdobeSVGViewerExtensions/3.0/"
	 x="0px" y="0px" width="26px" height="26px" viewBox="0 0 26 26" enable-background="new 0 0 26 26" xml:space="preserve">
<defs>
</defs>
<g>
	<g>
		<g>
			<path fill="#BDBDBD" d="M13,1c1.6,0,3.2,0.3,4.7,1c3,1.3,5.1,3.4,6.4,6.4c0.6,1.5,1,3,1,4.7c0,1.6-0.3,3.2-1,4.7
				c-1.3,2.9-3.4,5.1-6.4,6.4c-1.5,0.6-3,1-4.7,1c-1.6,0-3.2-0.3-4.7-1c-2.9-1.3-5.1-3.4-6.4-6.4C1.3,16.2,1,14.6,1,13
				c0-1.6,0.3-3.2,0.9-4.7c1.3-3,3.4-5.1,6.4-6.4C9.8,1.3,11.4,1,13,1 M13,23.5c1.9,0,3.7-0.5,5.3-1.4c1.6-0.9,2.9-2.2,3.9-3.8
				c0.9-1.6,1.4-3.4,1.4-5.3s-0.5-3.7-1.4-5.3c-0.9-1.6-2.2-2.9-3.9-3.8c-1.6-0.9-3.4-1.4-5.3-1.4c-1.9,0-3.7,0.5-5.3,1.4
				C6.1,4.8,4.8,6.1,3.9,7.7C2.9,9.3,2.5,11.1,2.5,13c0,1.4,0.3,2.8,0.8,4.1c0.6,1.3,1.3,2.4,2.2,3.4c0.9,0.9,2.1,1.7,3.4,2.2
				C10.2,23.3,11.5,23.5,13,23.5 M13,0c-1.7,0-3.4,0.3-5.1,1C4.7,2.4,2.4,4.7,1,7.9C0.3,9.5,0,11.2,0,13c0,1.8,0.3,3.5,1,5.1
				c1.4,3.2,3.7,5.5,6.9,6.9c1.6,0.7,3.3,1,5.1,1c1.7,0,3.4-0.3,5.1-1c3.2-1.4,5.5-3.7,6.9-6.9c0.7-1.6,1-3.3,1-5.1
				c0-1.7-0.3-3.4-1-5.1C23.6,4.7,21.3,2.4,18,1C16.4,0.3,14.7,0,13,0L13,0z M13,22.5c-1.3,0-2.5-0.3-3.7-0.8c-1.2-0.5-2.2-1.2-3-2
				c-0.8-0.8-1.5-1.9-2-3.1c-0.5-1.2-0.7-2.4-0.7-3.7c0-1.7,0.4-3.3,1.3-4.8c0.8-1.5,2-2.6,3.5-3.5c1.5-0.8,3.1-1.3,4.8-1.3
				c1.7,0,3.3,0.4,4.8,1.3c1.5,0.9,2.6,2,3.5,3.5c0.8,1.5,1.3,3.1,1.3,4.8c0,1.7-0.4,3.3-1.3,4.8c-0.8,1.5-2,2.6-3.5,3.5
				C16.3,22.1,14.7,22.5,13,22.5L13,22.5z"/>
		</g>
		<path fill="none" stroke="#BDBDBD" stroke-miterlimit="10" d="M13,5.3c-0.4,0-0.7,0.3-0.7,0.7V13c0,0,0,0.1,0,0.1
			c0,0.2,0,0.4,0.2,0.6l3.9,3.9c0.3,0.3,0.7,0.3,1,0"/>
	</g>
</g>
</svg>
