<!-- Generator: Adobe Illustrator 18.1.1, SVG Export Plug-In  -->
<svg version="1.1"
	 xmlns="http://www.w3.org/2000/svg" xmlns:xlink="http://www.w3.org/1999/xlink" xmlns:a="http://ns.adobe.com/AdobeSVGViewerExtensions/3.0/"
	 x="0px" y="0px" viewBox="0 0 18.5 22.1" enable-background="new 0 0 18.5 22.1"
	 xml:space="preserve">
<defs>
</defs>
<g>
	<path fill="#FFFFFF" d="M15.5,0.8C13.8,0.3,11.6,0,9.3,0C6.9,0,4.7,0.3,3,0.8C0.5,1.7,0,2.7,0,3.5v2.3c0,0.8,0.5,1.8,3,2.7
		c1.1,0.3,2.3,0.6,3.7,0.7c0.3,2.4,0.4,4.3,0.3,6.4c-2.1,0.5-3.4,1.7-3.4,3.1c0,1.9,2.5,3.4,5.7,3.4s5.7-1.5,5.7-3.4
		c0-1.4-1.3-2.6-3.4-3.1c-0.2-2.1-0.1-3.9,0.3-6.4c1.4-0.1,2.7-0.4,3.7-0.7c2.5-0.8,3-1.9,3-2.7V3.5C18.5,2.7,18,1.7,15.5,0.8z
		 M3.4,2.2C5,1.7,7.1,1.4,9.3,1.4s4.3,0.3,5.8,0.8c1.5,0.5,2,1,2,1.3s-0.5,0.8-2,1.3c-1.5,0.5-3.6,0.8-5.8,0.8S5,5.3,3.4,4.8
		c-1.5-0.5-2-1-2-1.3S2,2.7,3.4,2.2z M13.5,18.8c0,0.9-1.8,1.9-4.2,1.9c-2.4,0-4.2-1-4.2-1.9c0-0.6,0.7-1.2,1.8-1.6
		c-0.1,0.5-0.1,0.9-0.2,1.4c0,0.3,0.1,0.5,0.3,0.7c0.4,0.3,1.4,0.5,2.3,0.5s1.9-0.2,2.3-0.5c0.2-0.2,0.3-0.4,0.3-0.7
		c-0.1-0.5-0.1-1-0.2-1.4C12.8,17.6,13.5,18.2,13.5,18.8z M10.4,18.2c-0.6,0.1-1.6,0.1-2.2,0c0.4-3.4,0.5-5.6,0-8.9
		c0.4,0,0.7,0,1.1,0c0.4,0,0.7,0,1.1,0C9.9,12.6,9.9,14.8,10.4,18.2z M15.1,7.1c-1.5,0.5-3.6,0.8-5.8,0.8S5,7.6,3.4,7.1
		c-1.5-0.5-2-1-2-1.3V5.5C1.8,5.7,2.4,5.9,3,6.2C4.7,6.7,6.9,7,9.3,7c2.4,0,4.6-0.3,6.3-0.8c0.6-0.2,1.2-0.4,1.6-0.7v0.3
		C17.1,6.1,16.6,6.6,15.1,7.1z"/>
</g>
</svg>
