<?xml version="1.0" encoding="utf-8"?>
<!-- Generator: Adobe Illustrator 18.0.0, SVG Export Plug-In . SVG Version: 6.00 Build 0)  -->
<!DOCTYPE svg PUBLIC "-//W3C//DTD SVG 1.1//EN" "http://www.w3.org/Graphics/SVG/1.1/DTD/svg11.dtd">
<svg version="1.1" id="Layer_1" xmlns="http://www.w3.org/2000/svg" xmlns:xlink="http://www.w3.org/1999/xlink" x="0px" y="0px"
	 viewBox="0 0 50 50" enable-background="new 0 0 50 50" xml:space="preserve">
<g>
	<g>
		<path stroke="#fff" stroke-miterlimit="10" d="M46.6,35.1c0-0.1,0-0.2,0-0.3c0-5.7-1.9-10.5-5.4-14c-3.5-3.5-8.4-5.4-14.4-5.8
			v-1.4c0,0,0,0,0,0l1.3,0c0.7,0,1.2-0.6,1.2-1.2v-1.2c0-0.7-0.6-1.2-1.2-1.2h-6.2c-0.7,0-1.2,0.6-1.2,1.2v1.2
			c0,0.7,0.6,1.2,1.2,1.2h1.3c0,0,0,0,0,0V15c-5.9,0.3-10.8,2.3-14.3,5.8c-1.8,1.8-3.2,3.9-4.1,6.3c-0.9,2.4-1.4,5-1.4,7.7
			c0,0.1,0,0.2,0,0.3c-1.2,0.2-2.1,1.2-2.1,2.5c0,1.4,1.1,2.5,2.5,2.5h42.3c1.4,0,2.5-1.1,2.5-2.5C48.7,36.3,47.8,35.3,46.6,35.1z
			 M21.9,12.3v-1.2c0,0,0,0,0,0h6.2c0,0,0,0,0,0v1.2c0,0,0,0,0,0h-2.4c0,0-0.1,0-0.1,0h-1.2c0,0-0.1,0-0.1,0L21.9,12.3
			C21.9,12.4,21.9,12.4,21.9,12.3z M24.4,13.6C24.4,13.6,24.4,13.6,24.4,13.6l1.3,0c0,0,0,0,0,0v1.3c-0.2,0-0.4,0-0.6,0
			c-0.2,0-0.4,0-0.6,0L24.4,13.6L24.4,13.6z M25,16.1c15,0,20.4,9.6,20.4,18.6c0,0.1,0,0.2,0,0.3H4.6c0-0.1,0-0.2,0-0.3
			C4.6,23.4,12.6,16.1,25,16.1z M46.2,38.9H3.8c-0.7,0-1.3-0.6-1.3-1.3c0-0.7,0.6-1.3,1.3-1.3h42.3c0.7,0,1.3,0.6,1.3,1.3
			C47.5,38.3,46.9,38.9,46.2,38.9z"/>
	</g>
</g>
</svg>
