<?xml version="1.0" encoding="utf-8"?>
<!-- Generator: Adobe Illustrator 18.0.0, SVG Export Plug-In . SVG Version: 6.00 Build 0)  -->
<!DOCTYPE svg PUBLIC "-//W3C//DTD SVG 1.1//EN" "http://www.w3.org/Graphics/SVG/1.1/DTD/svg11.dtd">
<svg version="1.1" id="Capa_1" xmlns="http://www.w3.org/2000/svg" xmlns:xlink="http://www.w3.org/1999/xlink" x="0px" y="0px" width="30px" height="40px"
	 viewBox="0 0 950 950" enable-background="new 0 0 950 950" xml:space="preserve">
<circle fill="#FFFFFF" cx="475" cy="339" r="307"/>
<g>
	<g>
		<g>
			<path fill="#650D15" d="M475,0C287.6,0,135.1,152.5,135.1,339.9c0,176,254.4,366.4,328,601.6c1.6,5.1,6.3,8.5,11.6,8.5
				c5.3-0.1,10-3.6,11.5-8.7c71.4-240.9,328.6-425.2,328.7-601.4C814.9,152.5,662.4,0,475,0z M475,597.7
				c-147,0-266.5-119.6-266.5-266.5c0-147,119.6-266.5,266.5-266.5c146.9,0,266.5,119.6,266.5,266.5
				C741.5,478.1,621.9,597.7,475,597.7z"/>
		</g>
	</g>
</g>
<g>
	<path fill="#650D15" d="M580.2,216c-21.3,0-40.3,10-52.6,25.6c-9.6-12.2-23.4-21-39.2-24.2c-6.4-45-45.1-79.8-91.9-79.8h0
		c-7.9,0-14.4,6.4-14.4,14.4c0,7.9,6.4,14.4,14.4,14.4c31,0,57,22.2,62.8,51.5c-14.9,3.6-27.8,12.1-37,23.7
		C410.1,226,391.1,216,369.8,216c-36.9,0-67,30.1-67,67c0,33.6,24.9,61.5,57.3,66.3c-3,7.6-4.6,15.8-4.6,24.5
		c0,33.5,24.8,61.4,57,66.2c-3.2,7.8-4.9,16.2-4.9,25.1c0,36.9,30.1,67,67,67c36.9,0,67-30.1,67-67c0-8.8-1.7-17.3-4.9-25
		c32.7-4.4,58-32.5,58-66.4c0-8.6-1.7-16.9-4.6-24.5c32.3-4.7,57.3-32.7,57.3-66.3C647.2,246.1,617.2,216,580.2,216z M475,244.8
		c21.1,0,38.2,17.1,38.2,38.2c0,12.8-6.4,24.2-16.1,31.1c-2.1,1.1-4,2.2-6,3.5c-4.9,2.3-10.4,3.6-16.1,3.6c-5.8,0-11.2-1.3-16.1-3.6
		c-1.9-1.3-3.9-2.4-6-3.5c-9.7-6.9-16.1-18.3-16.1-31.1C436.8,261.9,453.9,244.8,475,244.8z M331.6,283c0-21.1,17.1-38.2,38.2-38.2
		c21.1,0,38.2,17.1,38.2,38.2c0,12.8-6.4,24.2-16.1,31.1c-2.1,1.1-4,2.2-6,3.5c-4.9,2.3-10.3,3.6-16.1,3.6
		C348.7,321.2,331.6,304.1,331.6,283z M384.2,373.8c0-12.9,6.4-24.2,16.1-31.2c2.1-1.1,4.1-2.2,6-3.5c4.9-2.3,10.3-3.6,16.1-3.6
		s11.2,1.3,16.1,3.6c1.9,1.3,3.9,2.4,6,3.5c9.8,6.9,16.1,18.3,16.1,31.2c0,21.1-17.1,38.2-38.2,38.2
		C401.3,412,384.2,394.8,384.2,373.8z M474.5,503.4c-21.1,0-38.2-17.1-38.2-38.2c0-21.1,17.1-38.2,38.2-38.2
		c21.1,0,38.2,17.1,38.2,38.2C512.7,486.2,495.5,503.4,474.5,503.4z M527.6,412c-21.1,0-38.2-17.1-38.2-38.2
		c0-12.9,6.4-24.2,16.1-31.1c2.1-1.1,4.1-2.2,6-3.5c4.9-2.3,10.3-3.6,16.1-3.6c5.8,0,11.2,1.3,16.1,3.6c1.9,1.3,3.9,2.4,6,3.5
		c9.7,6.9,16.1,18.3,16.1,31.2C565.8,394.8,548.7,412,527.6,412z M580.2,321.2c-5.8,0-11.2-1.3-16.1-3.6c-1.9-1.3-3.9-2.4-6-3.5
		c-9.7-6.9-16.1-18.3-16.1-31.1c0-21.1,17.1-38.2,38.2-38.2c21.1,0,38.2,17.1,38.2,38.2C618.4,304.1,601.3,321.2,580.2,321.2z"/>
</g>
</svg>
