<!-- Generator: Adobe Illustrator 18.1.1, SVG Export Plug-In  -->
<svg version="1.1"
	 xmlns="http://www.w3.org/2000/svg" xmlns:xlink="http://www.w3.org/1999/xlink" xmlns:a="http://ns.adobe.com/AdobeSVGViewerExtensions/3.0/"
	 x="0px" y="0px" width="11.4px" height="20.2px" viewBox="0 0 11.4 20.2" enable-background="new 0 0 11.4 20.2"
	 xml:space="preserve">
<defs>
</defs>
<g>
	<g>
		<path fill="none" stroke="#FFFFFF" stroke-miterlimit="10" d="M10.5,0.5L8,0.5c-2.8,0-4.6,1.9-4.6,4.7v2.2H0.9
			c-0.2,0-0.4,0.2-0.4,0.4v3.2c0,0.2,0.2,0.4,0.4,0.4h2.5v8c0,0.2,0.2,0.4,0.4,0.4H7c0.2,0,0.4-0.2,0.4-0.4v-8h2.9
			c0.2,0,0.4-0.2,0.4-0.4l0-3.2c0-0.1,0-0.2-0.1-0.3s-0.2-0.1-0.3-0.1H7.4V5.5c0-0.9,0.2-1.3,1.4-1.3l1.7,0c0.2,0,0.4-0.2,0.4-0.4
			V0.9C10.9,0.7,10.7,0.5,10.5,0.5z"/>
	</g>
</g>
</svg>
