<?xml version="1.0" encoding="utf-8"?>
<!-- Generator: Adobe Illustrator 18.0.0, SVG Export Plug-In . SVG Version: 6.00 Build 0)  -->
<!DOCTYPE svg PUBLIC "-//W3C//DTD SVG 1.1//EN" "http://www.w3.org/Graphics/SVG/1.1/DTD/svg11.dtd">
<svg version="1.1" id="Layer_1" xmlns="http://www.w3.org/2000/svg" xmlns:xlink="http://www.w3.org/1999/xlink" x="0px" y="0px"
	 viewBox="0 0 300 300" enable-background="new 0 0 300 300" xml:space="preserve">
<g>
	<g>
		<path fill="#fff" d="M166.1,29.1v11l-35.8,2.2c9.5,11.9,14.3,24.9,14.3,39.1c0,16.7-5.5,30.2-16.6,40.5
			c-11.1,10.3-26,15.5-44.6,15.5c-7.8,0-13.4-0.3-16.5-1c-6.3,3.3-11,7.2-14.3,11.6c-3.3,4.5-4.9,9.2-4.9,14.2
			c0,5.5,2.1,9.5,6.3,12.1s11.2,3.8,21.1,3.8h30.2c18.8,0,33.1,3.8,43.1,11.4c10,7.6,15,18.8,15,33.6c0,18.3-7.4,32.3-22.2,42.3
			c-14.8,9.9-35.9,14.9-63.2,14.9c-21.8,0-38.6-4.2-50.5-12.6c-11.9-8.4-17.9-20-17.9-35c0-11.9,3.7-21.7,11.1-29.6
			c7.4-7.8,17.4-13.2,30-16.1c-5.2-2.2-9.4-5.4-12.5-9.5c-3.1-4.1-4.7-8.8-4.7-14.1c0-11.6,7.4-21.7,22.1-30.5
			c-10.1-4.1-17.9-10.6-23.5-19.5c-5.6-8.9-8.4-19-8.4-30.5c0-17.3,5.5-31.2,16.5-41.6s25.8-15.7,44.5-15.7
			c11.3,0,20.2,1.1,26.4,3.3H166.1z M26.1,231.3c0,23.8,17.7,35.6,53,35.6c45.4,0,68.1-14.5,68.1-43.4c0-10.4-3.5-17.9-10.7-22.6
			c-7.1-4.6-18.6-7-34.5-7H73.6C41.9,193.9,26.1,206.4,26.1,231.3z M39.3,83c0,13.4,4.1,23.7,12.2,31.1c8.1,7.4,19,11.1,32.5,11.1
			c14.4,0,25.5-3.7,33.2-11c7.7-7.3,11.5-17.9,11.5-31.8c0-14.7-3.9-25.8-11.9-33.2s-19-11.1-33.2-11.1C69.9,38.1,59,42.1,51.1,50
			S39.3,68.9,39.3,83z"/>
	</g>
	<g>
		<path fill="#fff" d="M238.9,110.8h51.8v9.8h-51.8v51.6h-9.8v-51.6h-51.6v-9.8h51.6V59h9.8V110.8z"/>
	</g>
</g>
</svg>
