<!-- Generator: Adobe Illustrator 18.1.1, SVG Export Plug-In  -->
<svg version="1.1"
	 xmlns="http://www.w3.org/2000/svg" xmlns:xlink="http://www.w3.org/1999/xlink" xmlns:a="http://ns.adobe.com/AdobeSVGViewerExtensions/3.0/"
	 x="0px" y="0px" viewBox="0 0 19.9 19.8" enable-background="new 0 0 19.9 19.8"
	 xml:space="preserve">
<defs>
</defs>
<g id="XMLID_1_">
	<path id="XMLID_4_" fill="#FFFFFF" d="M6.3,12.4c-0.1,0-0.2,0-0.3,0c-0.2,0-0.5,0-0.7-0.1l-5.1,5.1c-0.3,0.2-0.3,0.7,0,0.9l1.3,1.3
		c0.3,0.2,0.7,0.2,0.9,0l6.1-6.1l-1.1-1.2L6.3,12.4z"/>
	<path id="XMLID_3_" fill="#FFFFFF" d="M19.7,4.2c-0.2-0.2-0.6-0.2-0.9,0l-3.3,3.3c-0.3,0.3-0.8,0.3-1.1,0c-0.3-0.3-0.3-0.8,0-1.1
		l3.3-3.3c0.2-0.2,0.2-0.7,0-0.9c-0.2-0.2-0.7-0.2-0.9,0l-3.3,3.3c-0.3,0.3-0.8,0.3-1.1,0c-0.3-0.3-0.3-0.8,0-1.1L15.7,1
		c0.2-0.2,0.2-0.6,0-0.9c-0.2-0.2-0.6-0.2-0.9,0l-3.7,3.7C10.2,4.8,9.9,6,10.2,7.2l2.5,2.5c1.1,0.3,2.4,0,3.3-0.9l3.7-3.7
		C20,4.8,20,4.4,19.7,4.2z"/>
	<path id="XMLID_2_" fill="#FFFFFF" d="M1.7,0.5C1.5,0.4,1.4,0.3,1.2,0.3c0,0-0.1,0-0.1,0c-0.2,0-0.4,0.2-0.5,0.4
		C-0.5,2.9,0,5.6,1.7,7.4l3.2,3.2c0.3,0.3,0.7,0.5,1.2,0.5c0,0,0.1,0,0.1,0L8,10.9l8,8.6c0.1,0.1,0.3,0.2,0.5,0.2c0,0,0,0,0,0
		c0.2,0,0.4-0.1,0.5-0.2l1.4-1.4c0.1-0.1,0.2-0.3,0.2-0.5c0-0.2-0.1-0.4-0.2-0.5L1.7,0.5z"/>
</g>
</svg>
