<!-- Generator: Adobe Illustrator 18.1.1, SVG Export Plug-In  -->
<svg version="1.1"
	 xmlns="http://www.w3.org/2000/svg" xmlns:xlink="http://www.w3.org/1999/xlink" xmlns:a="http://ns.adobe.com/AdobeSVGViewerExtensions/3.0/"
	 x="0px" y="0px" width="155.7px" height="106.4px" viewBox="0 0 155.7 106.4" enable-background="new 0 0 155.7 106.4"
	 xml:space="preserve">
<defs>
</defs>
<g>
	<g>
		<path fill="#FFFFFF" d="M65.6,13.7C65.6,13.7,65.6,13.7,65.6,13.7C65.6,13.7,65.6,13.7,65.6,13.7z"/>
		<path fill="#FFFFFF" d="M80.7,10.1L80.7,10.1L80.7,10.1C80.7,10.1,80.7,10.1,80.7,10.1L80.7,10.1z"/>
		<polygon fill="#FFFFFF" points="80.7,10.1 80.7,10.1 80.7,10.1 		"/>
		<path fill="#FFFFFF" d="M97,30C97,30,97,30,97,30C97,30,97,30,97,30L97,30C97,30,97,30,97,30L97,30C97,30,97,30,97,30z"/>
		<path fill="#FFFFFF" d="M73.7,58.8L73.7,58.8L73.7,58.8C73.7,58.8,73.7,58.8,73.7,58.8z"/>
		<path fill="#FFFFFF" d="M75.5,51.1C75.5,51.1,75.5,51.1,75.5,51.1C75.5,51.1,75.5,51.1,75.5,51.1C75.5,51.1,75.5,51.1,75.5,51.1z"
			/>
		<path fill="#FFFFFF" d="M64.9,49C64.9,49.1,64.9,49,64.9,49L64.9,49z"/>
		<path fill="#FFFFFF" d="M97.6,34.9c0.2-0.4,0.3-0.9,0.4-1.3c0.1-0.4,0.1-0.9,0-1.3c-0.1-0.8-0.4-1.4-0.6-1.8
			c-0.1-0.2-0.2-0.4-0.3-0.5c0,0-0.1-0.1-0.1-0.1c0,0,0,0,0,0c0,0,0,0,0,0c0,0,0,0,0,0c0,0,0,0.1-0.1,0.1c0,0,0,0,0,0c0,0,0,0,0.1,0
			c0,0,0-0.1,0-0.1l0,0c0,0,0,0,0,0c0,0,0,0-0.1,0c0,0-0.1,0.1-0.1,0.1c0,0,0,0,0,0c0,0,0,0,0,0v0c0,0,0,0,0,0c0,0,0,0,0,0
			c0,0,0,0,0,0l0,0c0,0,0,0,0,0c0,0,0,0,0,0c0,0,0,0.1,0.1,0.1c0.1,0.1,0.1,0.3,0.2,0.4c0.2,0.4,0.4,1,0.5,1.7c0,0.4,0,0.8-0.1,1.2
			c-0.1,0.4-0.2,0.8-0.5,1.2c-0.2,0.4-0.5,0.8-0.8,1.1c-0.3,0.3-0.7,0.6-1.2,0.7c-0.4,0.2-0.9,0.2-1.4,0.3c-0.5,0-0.9,0-1.4-0.1
			c-0.4-0.1-0.8-0.2-1.2-0.4c-0.2-0.1-0.3-0.2-0.5-0.3c-0.1-0.1-0.3-0.2-0.4-0.4c-0.2-0.2-0.4-0.5-0.6-0.7c-0.1-0.2-0.2-0.5-0.3-0.7
			c-0.1-0.2-0.1-0.3-0.1-0.4c0,0,0-0.1,0-0.1c0,0,0,0,0,0c0.1-0.1,0.1-0.1,0.2-0.2c0.6-0.7,1-1.5,1-2.3c0-0.6,0-1.1-0.1-1.5
			c0.1,0.3,0.2,0.5,0.2,0.7c0,0.1,0,0.2,0.1,0.3c0,0.1,0,0.1,0,0.1v0c0,0,0,0.1,0.1,0c0,0,0.1,0,0-0.1c0,0,0,0,0-0.1
			c0-0.1,0-0.1,0-0.3c0-0.2-0.1-0.6-0.3-1c0,0,0,0,0,0c0,0,0.1,0,0.1-0.1c0.1-0.1,0.2-0.2,0.4-0.3c0.4-0.2,0.9-0.5,1.5-0.6
			c0.1,0,0.3-0.1,0.4-0.1c0.1,0,0.3,0,0.4,0c0.1,0,0.3,0,0.4,0c0.1,0,0.2,0,0.4,0.1c0.1,0,0.2,0,0.3,0.1c0.1,0,0.2,0.1,0.2,0.1
			c0.1,0,0.2,0.1,0.2,0.1l0,0c0,0,0.1,0,0.1,0c0,0,0-0.1,0-0.1c0,0-0.1,0-0.2-0.1c-0.1,0-0.1-0.1-0.2-0.1c-0.1,0-0.2-0.1-0.3-0.1
			c-0.1,0-0.2-0.1-0.4-0.1c-0.1,0-0.3-0.1-0.4-0.1c-0.1,0-0.3,0-0.5,0c-0.2,0-0.3,0-0.5,0c-0.6,0.1-1.2,0.3-1.6,0.6
			c-0.2,0.1-0.4,0.2-0.5,0.3c0,0,0,0,0,0c0-0.1-0.1-0.1-0.1-0.2c-0.1-0.5-0.3-0.8-0.5-1.2c-0.2-0.4-0.4-0.7-0.5-0.9
			c-0.1-0.1-0.1-0.2-0.2-0.2c0,0-0.1-0.1-0.1-0.1c-0.1-0.1-0.2-0.1-0.2,0c-0.1,0.1-0.1,0.2,0,0.2c0,0,0,0,0.1,0.1
			c0,0,0.1,0.1,0.1,0.2c0.1,0.1,0.2,0.3,0.3,0.6c-0.1-0.1-0.1-0.1-0.2-0.2c-0.3-0.2-0.5-0.5-0.9-0.7c-0.1-0.1-0.2-0.1-0.4-0.2
			c0,0,0-0.1,0-0.1c0.1-0.2,0.1-0.4,0.2-0.8c0.1-0.3,0.1-0.8,0-1.3c-0.1-0.5-0.2-1-0.4-1.6c-0.2-0.6-0.6-1.1-1.2-1.6
			c-0.6-0.4-1.2-0.7-2-1c-0.4-0.1-0.7-0.2-1.1-0.2l-0.3,0c-0.1,0-0.2,0-0.3,0c-0.2,0-0.4,0-0.6,0c-0.8,0.1-1.6,0.4-2.3,0.8
			c-0.2,0.1-0.4,0.2-0.5,0.3c-0.4-0.5-1-1.1-1.5-1.7c-0.2-0.2-0.4-0.3-0.6-0.5c-0.1-0.1-0.2-0.2-0.4-0.2c-0.1,0-0.1-0.1-0.3-0.1
			c-0.1,0-0.2,0-0.2,0c-0.2,0-0.4,0-0.6-0.1c-0.2,0-0.4-0.1-0.5-0.1c-0.3-0.1-0.6-0.2-0.7-0.2c0-0.3-0.1-0.6-0.1-0.8
			c0-0.6,0-1,0-1.4c0-0.2,0-0.3,0-0.4c0-0.1,0-0.1,0-0.1l0,0c0,0,0,0,0,0c0-0.3-0.2-0.6-0.5-0.6c-0.3,0-0.6,0.2-0.6,0.5
			c0,0,0,0.1,0,0.2c0,0.1,0,0.2,0,0.4c0,0.4,0,0.9,0,1.5c0,0.4,0.1,0.8,0.2,1.3c-0.1,0-0.1,0.1-0.2,0.1c-0.2,0.1-0.6,0.3-1,0.4
			c0,0,0-0.1-0.1-0.1c-0.1-0.1-0.2-0.2-0.2-0.3c-0.1-0.1-0.2-0.2-0.3-0.3c-0.2-0.2-0.4-0.3-0.6-0.5c-0.4-0.3-0.9-0.6-1.4-0.8
			c-0.5-0.2-1.1-0.3-1.6-0.3c-0.6,0-1.1,0-1.6,0.1c-0.1,0-0.2,0-0.3,0.1c-0.2-0.2-0.4-0.5-0.6-0.7c0.1-0.1,0.2-0.2,0.3-0.3
			c0.3-0.4,0.6-0.9,0.6-1.4c0.1-0.6-0.1-1.1-0.5-1.6c-0.1-0.1-0.1-0.1-0.2-0.2c-0.1-0.1-0.2-0.1-0.3-0.1c-0.2-0.1-0.4-0.1-0.6-0.1
			c-0.2,0-0.4,0.1-0.5,0.3c-0.1,0.1-0.2,0.2-0.3,0.4c-0.1,0.1-0.1,0.2-0.2,0.3c0,0.1-0.1,0.3-0.1,0.3l0,0.1c0,0.1,0,0.2-0.1,0.2
			c0,0.1,0,0.3,0,0.4c0,0.5,0.2,0.9,0.3,1.3c0,0.1,0.1,0.2,0.1,0.2c-0.1,0.1-0.3,0.2-0.4,0.3L64,16.6l-0.1,0.1l-0.3,0.2
			c-0.2,0.1-0.4,0.2-0.5,0.3c-0.2,0.1-0.4,0.2-0.6,0.2c-0.4,0.1-0.8,0.2-1.2,0.2c-0.4,0-0.8,0-1.2-0.1c-1.6-0.4-2.9-1.8-3.5-3.4
			c-0.3-0.8-0.4-1.7-0.2-2.6c0.1-0.4,0.2-0.8,0.4-1.2c0.1,0,0.1,0.1,0.2,0.1c0.2,0.1,0.4,0.2,0.8,0.2c0.3,0,0.6-0.1,0.8-0.3
			c0.3-0.2,0.4-0.6,0.3-1c-0.1-0.4-0.5-0.6-0.8-0.7c-0.2,0-0.3,0-0.5,0l-0.1,0l0,0l0,0l0,0c-0.1,0-0.1,0.1-0.2,0.1
			c-0.3,0.1-0.5,0.3-0.7,0.5c-0.3-0.2-0.5-0.5-0.7-0.7C55.3,7.9,55,7.2,55,6.4c0-0.8,0.1-1.6,0.4-2.3c0.1-0.2,0.2-0.4,0.2-0.5
			c0.1-0.2,0.2-0.4,0.3-0.5c0.2-0.3,0.4-0.6,0.7-0.9c0.5-0.5,1.1-0.9,1.7-1.2c1.2-0.6,2.5-0.7,3.6-0.7c1.1,0,2.1,0.2,2.8,0.5
			c0.8,0.2,1.4,0.5,1.7,0.7c0.4,0.2,0.6,0.3,0.6,0.3l0.1-0.1c0,0-0.2-0.1-0.6-0.3c-0.4-0.2-1-0.5-1.8-0.7C64,0.3,63,0.1,61.9,0
			c-1.1-0.1-2.5,0.1-3.8,0.6c-0.7,0.3-1.3,0.7-1.8,1.3c-0.3,0.3-0.5,0.6-0.8,0.9c-0.1,0.2-0.2,0.3-0.3,0.5c-0.1,0.2-0.2,0.4-0.3,0.6
			c-0.3,0.8-0.6,1.6-0.5,2.5c0,0.9,0.3,1.8,0.9,2.5c0.2,0.3,0.5,0.6,0.8,0.9c0,0,0,0.1,0,0.1c-0.3,0.4-0.4,0.9-0.5,1.4
			c-0.2,1-0.1,2,0.2,2.9c0.3,0.9,0.8,1.8,1.5,2.5c0.7,0.7,1.6,1.3,2.5,1.5c0.5,0.1,1,0.2,1.5,0.2c0.5,0,1-0.1,1.5-0.2
			c0.2-0.1,0.5-0.2,0.7-0.2c0.2-0.1,0.5-0.2,0.7-0.3l0.3-0.2l0.2-0.1l0.1-0.1c0.1-0.1,0.2-0.2,0.4-0.2c0.1,0.1,0.2,0.2,0.3,0.4
			c0,0,0,0,0,0c-0.9,0.5-1.6,1.3-1.9,2.1c-0.2,0.4-0.3,0.8-0.3,1.2c0,0.2,0,0.3,0,0.5c0,0.2,0,0.3,0,0.4c0,0.2,0.1,0.4,0.1,0.5
			c-0.3,0-0.7,0.1-1,0.2c-1.4,0.4-2.7,1.5-3.4,3c-0.2,0.4-0.3,0.8-0.3,1.2c0,0.2,0,0.4,0,0.7c0,0,0,0.1,0,0.1c0,0-0.1,0-0.1,0
			c-0.3,0-0.6,0.1-0.9,0.3c-0.4,0.1-0.8,0.3-1.1,0.7c-0.4,0.3-0.7,0.7-1,1.2c-0.3,0.5-0.4,1.1-0.5,1.7l0,0.2c0,0,0,0,0,0.1l0,0.1
			l0,0.1c0,0.1,0,0.1,0,0.2l0,0.2c0,0.3,0.1,0.7,0.2,1c0.2,0.6,0.6,1.3,1.2,1.7c0.6,0.4,1.2,0.6,1.9,0.7c0.6,0.1,1.2,0.1,1.8,0
			c0.1,0,0.3-0.1,0.4-0.1c0.1,0,0.3-0.1,0.4-0.1c0.3-0.1,0.5-0.2,0.8-0.3c0.5-0.3,0.9-0.6,1.2-0.9c0.3-0.3,0.6-0.7,0.8-1
			c0.1-0.2,0.2-0.3,0.3-0.5c0.1-0.1,0.1-0.3,0.2-0.4c0.1-0.2,0.2-0.4,0.2-0.6c0,0,0-0.1,0-0.1c0.2,0,0.4,0,0.5,0
			c0.4,0,0.8-0.1,1.1-0.1c0.3,0,0.5-0.1,0.7-0.1c0,0,0,0,0,0c0.1,0.2,0.2,0.3,0.3,0.5c0,0-0.1,0-0.1,0c-0.2,0-0.3,0-0.6,0.1
			c-0.1,0-0.2,0.1-0.4,0.1c-0.1,0-0.1,0.1-0.2,0.1c-0.1,0-0.1,0.1-0.2,0.1c-0.2,0.2-0.5,0.3-0.8,0.6c-0.1,0.1-0.3,0.2-0.4,0.4
			c-0.1,0.1-0.2,0.3-0.3,0.5c-0.1,0.2-0.2,0.3-0.3,0.5l-0.1,0.3c0,0.1,0,0.2-0.1,0.3c0,0.2-0.1,0.4-0.1,0.6c0,0.2,0,0.4,0,0.6
			c0,0.2,0,0.4,0.1,0.6c0,0.2,0.1,0.4,0.2,0.6c0,0.1,0.1,0.2,0.1,0.3l0.1,0.3c0.1,0.2,0.2,0.3,0.3,0.5c0.1,0.1,0.2,0.3,0.3,0.4
			c0.1,0.1,0.2,0.2,0.4,0.3c0.2,0.2,0.5,0.4,0.7,0.5c0.1,0,0.1,0.1,0.2,0.1c0.1,0,0.1,0,0.2,0.1c0.1,0,0.2,0.1,0.3,0.1
			c0.2,0.1,0.4,0.1,0.5,0.2c0.1,0,0.2,0,0.3,0c0,0,0,0,0,0c-0.2,0.2-0.3,0.4-0.4,0.6c-0.2,0.4-0.5,0.8-0.6,1.3
			c-0.2,0.5-0.2,1-0.2,1.5c0,0.5,0.2,1,0.5,1.5c0.1,0.2,0.3,0.4,0.4,0.5c0,0,0,0,0,0c-0.2,0.1-0.5,0.3-0.8,0.6
			c-0.3,0.2-0.6,0.5-0.9,0.9c-0.3,0.4-0.6,0.8-0.8,1.4C64,48.3,64,48.4,64,48.6l-0.1,0.2l0,0.1l0,0l0,0.1l0,0.1c0,0.1,0,0.3-0.1,0.4
			c0,0.2,0,0.3,0,0.5c0,0.6,0.1,1.3,0.3,1.9c0.2,0.6,0.6,1.2,1,1.8c0.5,0.5,1.1,0.9,1.7,1.2c0.7,0.2,1.4,0.2,2,0.1l0.2,0l0.1,0
			l0.1,0l0,0c0,0,0,0,0,0c0,0,0,0,0,0l0,0l0,0c0.1,0,0.3-0.1,0.4-0.1c0.1,0,0.3-0.1,0.4-0.1c0.1-0.1,0.3-0.1,0.4-0.2
			c0.5-0.2,1-0.5,1.3-0.8c0.4-0.3,0.6-0.6,0.9-1c0.2-0.3,0.4-0.6,0.5-0.8c0.1-0.2,0.1-0.3,0.2-0.4c0.3,0,0.6,0,0.8,0
			c0,0,0.1,0,0.1,0c0,0,0,0,0,0.1c-0.1,0.3-0.1,0.7-0.1,1.2c0,0.5,0,1,0.2,1.5c0,0,0,0.1,0,0.1c-0.3,0.1-0.6,0.2-0.9,0.5
			c-0.3,0.2-0.7,0.5-1,1c-0.3,0.4-0.5,1-0.5,1.6c0,0.3,0,0.6,0.1,0.9c0,0.2,0.1,0.3,0.1,0.5c0.1,0.1,0.1,0.3,0.2,0.4l0.1,0.2l0,0.1
			l0,0l0,0.1l0,0l0,0l0,0.1c0.1,0.1,0.1,0.2,0.2,0.4c0.2,0.3,0.4,0.6,0.6,0.8c0.2,0.3,0.5,0.5,0.7,0.7c0.3,0.2,0.6,0.4,0.9,0.5
			c0.6,0.3,1.2,0.5,1.9,0.5c0.6,0.1,1.3,0,1.9-0.2c0.6-0.2,1.1-0.5,1.6-0.9c0.1-0.1,0.2-0.2,0.3-0.3c0,0,0,0,0.1-0.1l0.1-0.1
			l0.1-0.1c0.1-0.2,0.3-0.4,0.4-0.6c0.4-0.8,0.5-1.6,0.5-2.2c0-0.2,0-0.4,0-0.5c0.5-0.2,0.9-0.5,1.3-0.9c0.5-0.5,0.9-1.2,1.1-1.9
			c0.2-0.7,0.3-1.3,0.3-2c0-0.6-0.2-1.2-0.3-1.7c-0.2-0.5-0.4-1-0.6-1.4c-0.2-0.4-0.5-0.7-0.7-0.9c-0.1-0.1-0.2-0.2-0.3-0.2
			c0,0,0.1,0,0.1,0c0.4-0.1,0.7-0.3,1-0.5c0.2-0.1,0.3-0.2,0.5-0.3c0.2-0.1,0.3-0.2,0.5-0.4c0.3-0.3,0.6-0.5,0.8-0.8
			c0.2-0.3,0.4-0.6,0.6-0.9c0.2-0.3,0.3-0.6,0.4-1c0.1-0.3,0.2-0.6,0.2-0.9c0-0.1,0-0.3,0-0.4c0-0.1,0-0.3,0-0.4c0-0.2,0-0.4,0-0.6
			c0,0,0,0,0,0c0.2,0.1,0.3,0.1,0.5,0.2c0.6,0.2,1.3,0.2,1.9,0.2l0.2,0l0.2-0.1c0.1,0,0.3-0.1,0.4-0.1c0.3-0.1,0.6-0.2,0.8-0.4
			c0.5-0.3,1-0.6,1.4-1c0.4-0.4,0.7-0.7,1-1.1c0.2-0.4,0.4-0.8,0.5-1.1c0.1-0.3,0.2-0.6,0.2-0.9c0-0.1,0-0.3,0-0.4
			c0-0.1,0-0.1,0-0.2c0.1,0,0.1,0,0.2,0c0.5,0,1.1-0.1,1.6-0.4c0.5-0.2,1-0.5,1.3-0.9C97.1,35.8,97.4,35.4,97.6,34.9z M57.5,9.4
			c0.4-0.2,0.6-0.1,0.6,0c0,0.1,0,0.2-0.1,0.2c-0.1,0.1-0.3,0.1-0.4,0.1c-0.1,0-0.3-0.1-0.5-0.1c0,0,0,0,0,0
			C57.3,9.6,57.4,9.5,57.5,9.4z M88.9,27.5c0.2,0.2,0.5,0.4,0.7,0.7c0,0,0,0,0.1,0.1c0.1,0.3,0.2,0.6,0.3,1c0.1,0.6,0.2,1.2,0.1,1.9
			c-0.1,0.7-0.4,1.4-0.9,1.9c-0.1,0.1-0.2,0.2-0.3,0.3c-0.1,0-0.1,0.1-0.2,0.1c-0.1,0.1-0.3,0.2-0.5,0.3c-0.4,0.2-0.8,0.4-1.2,0.4
			c-0.8,0.2-1.7,0.1-2.5-0.3c-0.4-0.2-0.8-0.4-1.1-0.8c-0.3-0.3-0.5-0.7-0.7-1.1c-0.4-0.8-0.5-1.8-0.4-2.6c0.1-0.9,0.6-1.6,1.3-2.1
			c0.7-0.5,1.5-0.8,2.3-0.9c0.8-0.1,1.6,0.1,2.2,0.4C88.4,27.1,88.7,27.3,88.9,27.5z M78.5,40c0-0.1-0.1-0.1-0.1-0.2
			c0-0.1-0.1-0.2-0.1-0.3c0-0.1-0.1-0.2-0.1-0.2c0-0.2-0.1-0.3-0.1-0.4c0,0,0-0.1,0-0.1c0.3,0.1,0.6,0.3,1,0.4
			c0.2,0.1,0.4,0.1,0.5,0.1c-0.1,0-0.2,0.1-0.3,0.1c-0.2,0.1-0.5,0.2-0.7,0.4C78.7,39.9,78.6,40,78.5,40z M76.8,41.6
			C76.8,41.7,76.8,41.7,76.8,41.6c-0.1,0-0.2,0-0.3-0.1c0-0.1,0-0.1,0.1-0.2c0.1-0.2,0.1-0.5,0.2-0.9c0-0.1,0-0.2,0-0.3
			c0.1-0.2,0.3-0.5,0.5-0.8c0,0,0-0.1,0.1-0.1c0,0.1,0.1,0.2,0.2,0.4c0.1,0.1,0.1,0.2,0.2,0.3c0.1,0.1,0.1,0.2,0.2,0.3
			c0.1,0.1,0.1,0.1,0.2,0.2c-0.1,0.1-0.3,0.2-0.4,0.3c-0.3,0.3-0.5,0.5-0.7,0.7C76.9,41.5,76.9,41.6,76.8,41.6z M73.3,41.1
			c0,0,0-0.1-0.1-0.1c-0.2-0.4-0.5-0.7-0.8-1c-0.3-0.3-0.6-0.5-0.9-0.7c0,0,0.1-0.1,0.2-0.1c0.1,0,0.1-0.1,0.2-0.2
			c0.1-0.1,0.2-0.2,0.3-0.3c0.1-0.1,0.2-0.2,0.3-0.4c0.1-0.1,0.2-0.3,0.2-0.5c0.1-0.2,0.1-0.3,0.2-0.5c0.1-0.2,0.1-0.4,0.1-0.6
			c0,0,0,0,0-0.1c0.1,0,0.3,0.1,0.5,0.2c0.2,0.1,0.3,0.1,0.5,0.2c0.2,0.1,0.3,0.2,0.5,0.3c0.1,0,0.2,0.1,0.3,0.2
			c0.1,0.1,0.2,0.1,0.2,0.2c0.2,0.1,0.3,0.3,0.4,0.5c0.1,0.2,0.2,0.3,0.3,0.5l0.1,0.1l0,0.1c0,0.1,0.1,0.2,0.1,0.3
			c0,0.2,0.1,0.4,0.1,0.6c0,0.2,0.1,0.4,0.1,0.6c0,0.3,0,0.6,0,0.8c0,0,0,0.1,0,0.1c0,0,0,0,0,0c-0.1-0.1-0.2-0.1-0.3-0.1
			c-0.1,0-0.2-0.1-0.3-0.1C75.1,41,74.7,41,74.3,41c-0.3,0-0.6,0-0.7,0.1C73.4,41.1,73.3,41.1,73.3,41.1
			C73.3,41.1,73.3,41.1,73.3,41.1z M67.2,31.1c-0.4-0.9-0.4-1.8-0.2-2.7c0.2-0.9,0.6-1.7,1.1-2.3c0.5-0.6,1.2-1.1,1.9-1.3
			c0.7-0.2,1.4-0.3,2-0.2c0.5,0.1,1,0.3,1.3,0.5c0,0-0.1,0-0.1,0c-0.5-0.1-0.8-0.1-1.1-0.1c-0.2,0-0.4,0-0.4,0c0,0-0.1,0-0.1,0.1
			c0,0,0,0.1,0.1,0.1h0c0,0,0.1,0,0.4,0c0.2,0,0.6,0,1,0.1c0.4,0.1,0.9,0.3,1.3,0.7c0.2,0.2,0.4,0.5,0.5,0.8c0.2,0.3,0.3,0.6,0.4,1
			c0.1,0.4,0.2,0.7,0.2,1.1c0,0.4,0,0.8-0.1,1.2c-0.2,0.8-0.6,1.6-1.2,2.3c-0.6,0.7-1.5,1.1-2.4,1.2C71,33.7,70,33.5,69.2,33
			C68.3,32.6,67.6,31.9,67.2,31.1z M77.2,25.3c0,0.1,0,0.2,0,0.3l0,0.3c0,0.1,0,0.2,0.1,0.3c0,0.2,0.1,0.3,0.1,0.5
			c0.1,0.2,0.1,0.5,0.2,0.7c-0.1,0-0.1,0-0.2,0c-0.2,0-0.3,0-0.5,0c-0.1,0-0.2,0-0.3,0c-0.1,0-0.2,0-0.3,0c0,0,0,0,0,0
			c0-0.1,0-0.1,0-0.2c0.1-0.4,0.1-0.9,0-1.5c0-0.3-0.1-0.6-0.1-0.9c0.2,0.1,0.4,0.3,0.5,0.3C77.1,25.2,77.2,25.2,77.2,25.3z
			 M75.6,24.2C75.6,24.2,75.6,24.1,75.6,24.2c0.2,0.5,0.3,1.1,0.3,1.5c0.1,0.6,0.1,1.1,0,1.3c0,0.1-0.1,0.2-0.1,0.3
			c-0.3-0.7-0.6-1.3-1-1.7c-0.2-0.1-0.3-0.2-0.5-0.3c-0.1-0.1-0.1-0.1-0.2-0.2c0.1,0,0.1-0.1,0.2-0.1c0.2-0.1,0.5-0.3,0.8-0.5
			C75.3,24.4,75.5,24.3,75.6,24.2z M72.8,34.1c0.1,0,0.3-0.1,0.4-0.1l0.2-0.1l0.2-0.1c0.5-0.3,0.9-0.6,1.3-1
			c0.7-0.8,1.1-1.7,1.3-2.7c0.1-0.5,0.1-0.9,0.1-1.4c0-0.3-0.1-0.6-0.2-0.9c0,0,0.1,0,0.1-0.1c0.1,0,0.2-0.1,0.4-0.1
			c0.1,0,0.1,0,0.2-0.1c0.1,0,0.2,0,0.2,0c0.2,0,0.3-0.1,0.5,0c0.1,0,0.2,0,0.3,0c0.1,0.3,0.3,0.6,0.5,0.9c0.3,0.5,0.7,0.9,1.1,1.3
			c0.4,0.3,0.8,0.5,1.1,0.7c0.3,0.1,0.6,0.2,0.8,0.2c0.1,0.6,0.2,1.2,0.5,1.8c0,0.1,0.1,0.1,0.1,0.2c0,0-0.1,0-0.1,0.1
			c-0.2,0.1-0.6,0.4-1,0.7c-0.4,0.3-0.7,0.8-1,1.4c-0.1,0.3-0.2,0.6-0.3,1c0,0.2,0,0.3,0,0.5c0,0,0,0,0,0c0,0,0,0,0,0.1
			c0,0,0,0.1,0,0.1c0,0,0,0,0,0.1c0,0.1-0.1,0.1-0.1,0.2c-0.1,0.1-0.1,0.1-0.2,0.2c-0.1,0.1-0.1,0.1-0.3,0.2
			c-0.1,0.1-0.2,0.1-0.3,0.2c-0.1,0.1-0.2,0.1-0.4,0.2c-0.1,0.1-0.3,0.1-0.4,0.1c-0.1,0-0.3,0-0.4,0c-0.1,0-0.3,0-0.4,0
			c-0.3,0-0.5-0.1-0.7-0.1c-0.1,0-0.2-0.1-0.3-0.1c-0.1-0.2-0.2-0.3-0.3-0.4c-0.1-0.1-0.2-0.2-0.3-0.3c-0.1-0.1-0.2-0.2-0.3-0.3
			c-0.2-0.2-0.4-0.3-0.6-0.5c-0.2-0.1-0.4-0.2-0.6-0.3c-0.4-0.2-0.7-0.3-0.9-0.4c-0.1,0-0.2-0.1-0.3-0.1c0,0,0,0,0,0
			c0-0.1-0.1-0.3-0.1-0.4c-0.1-0.2-0.1-0.4-0.2-0.5C72.7,34.2,72.8,34.2,72.8,34.1z M76.6,38.4c0-0.1-0.1-0.2-0.1-0.3
			c0.1,0,0.1,0,0.2,0c0.1,0.1,0.1,0.1,0.1,0.3c0,0,0,0.1,0,0.1c0,0.1,0,0.2,0,0.3c0,0.1-0.1,0.2-0.1,0.4c0,0,0,0,0,0
			c0-0.1,0-0.2-0.1-0.4 M81,39.1C81,39.1,81,39.1,81,39.1L81,39.1c0,0-0.1,0-0.2-0.1c-0.1,0-0.2-0.1-0.3-0.1c-0.1,0-0.1-0.1-0.2-0.1
			c-0.1,0-0.2-0.1-0.2-0.1c-0.2-0.1-0.3-0.2-0.5-0.3c-0.3-0.2-0.7-0.4-1-0.6c0.1,0,0.2-0.1,0.3-0.1c0.1-0.1,0.3-0.2,0.4-0.2
			c0.1-0.1,0.2-0.2,0.3-0.2c0.1-0.1,0.1-0.1,0.2-0.1c0.1,0.2,0.2,0.5,0.3,0.7c0.2,0.3,0.4,0.6,0.6,0.8c0.2,0.2,0.5,0.4,0.8,0.5
			C81.3,39.1,81.1,39.1,81,39.1z M83.6,35.6c-0.1,0.1-0.1,0.3-0.2,0.5c-0.1,0.2-0.1,0.4-0.2,0.6c0,0.2-0.1,0.4-0.1,0.7
			c0,0.2,0,0.5,0,0.7c0,0.1,0,0.3,0,0.4c0,0.1,0.1,0.3,0.1,0.4c0,0.1,0.1,0.3,0.1,0.4c0,0,0,0.1,0,0.1c0,0,0,0-0.1,0
			c-0.3-0.1-0.6-0.2-1-0.4c-0.4-0.2-0.9-0.4-1.2-0.8c-0.2-0.2-0.3-0.4-0.5-0.7c-0.1-0.2-0.2-0.5-0.2-0.8c0-0.1,0-0.2,0-0.2
			c0-0.1,0-0.1,0-0.2c0-0.1,0-0.3,0-0.4c0-0.3,0.1-0.5,0.2-0.8c0.2-0.5,0.5-0.9,0.7-1.3c0.3-0.3,0.6-0.6,0.8-0.8c0,0,0,0,0.1-0.1
			c0.2,0.3,0.4,0.6,0.7,0.9c0.4,0.4,0.8,0.7,1.3,0.9c0,0,0,0,0,0c-0.1,0.1-0.2,0.3-0.3,0.5C83.8,35.3,83.7,35.4,83.6,35.6z
			 M80.3,21.1c0.6-0.4,1.4-0.7,2.1-0.8c0.4-0.1,0.7,0,1.1,0c0.4,0,0.7,0.1,1.1,0.2c0.7,0.2,1.3,0.5,1.8,0.8c0.5,0.4,0.9,0.9,1.1,1.4
			c0.2,0.5,0.3,1.1,0.4,1.5c0.1,0.5,0.1,0.9,0,1.2c0,0.3-0.1,0.6-0.2,0.8c0,0,0,0.1,0,0.1c-0.6-0.2-1.2-0.3-1.9-0.3
			c-0.9,0-1.8,0.3-2.7,0.8c-0.4,0.3-0.8,0.6-1.1,1c-0.3,0.4-0.5,0.9-0.6,1.5c0,0.2-0.1,0.4-0.1,0.6c-0.1,0-0.3-0.1-0.5-0.2
			c-0.3-0.1-0.6-0.3-1-0.6c-0.3-0.3-0.7-0.6-1-1.1c-0.3-0.5-0.6-1-0.7-1.6c0-0.2-0.1-0.3-0.1-0.5L78,25.8l0-0.3c0-0.3-0.1-0.6,0-1
			c0.1-0.7,0.3-1.3,0.7-1.9c0.2-0.3,0.5-0.6,0.8-0.9c0.4,0.5,0.7,0.8,0.7,0.8c0.1,0.1,0.2,0.1,0.3,0c0.1-0.1,0.1-0.2,0-0.3
			c0,0-0.3-0.3-0.7-0.8C80,21.3,80.1,21.2,80.3,21.1z M75.2,19c0.2,0,0.4,0.1,0.6,0.1c0.2,0,0.4,0,0.7,0c0.1,0,0.1,0,0.1,0
			c0,0,0,0,0.1,0c0.1,0,0.2,0.1,0.3,0.1c0.2,0.1,0.4,0.3,0.5,0.4c0.6,0.5,1.1,1.1,1.6,1.5c-0.3,0.3-0.7,0.6-0.9,0.9
			c-0.5,0.6-0.8,1.4-0.9,2.2c0,0.1,0,0.2,0,0.3c0,0,0,0,0,0c-0.2-0.2-0.4-0.4-0.6-0.6c-0.1-0.1-0.2-0.2-0.3-0.4
			c-0.1-0.1-0.1-0.2-0.1-0.3c0-0.1,0-0.2-0.1-0.3l0,0c0,0,0-0.1,0-0.1c0,0,0,0,0,0c-0.1-0.6-0.3-1.1-0.4-1.7
			c-0.1-0.4-0.2-0.8-0.4-1.2c-0.1-0.2-0.1-0.4-0.2-0.6c-0.1-0.2-0.2-0.4-0.2-0.5c0,0,0-0.1,0-0.1C75,19,75.1,19,75.2,19z M73.6,20.2
			c-0.1,0.2-0.3,0.4-0.4,0.5c0,0,0,0,0,0c0-0.1,0-0.2-0.1-0.4C73.3,20.3,73.5,20.3,73.6,20.2z M69.9,17.6c0.5,0.2,0.9,0.4,1.3,0.7
			c0.4,0.3,0.7,0.6,1,0.9c0,0-0.1,0-0.1,0c-0.4,0.1-0.7,0.1-1.2,0.1c-0.4,0-0.9-0.1-1.4-0.3c-0.8-0.3-1.7-0.8-2.4-1.5
			c0.5-0.1,0.9-0.2,1.4-0.2C68.9,17.4,69.4,17.5,69.9,17.6z M65.6,13.7C65.6,13.7,65.6,13.7,65.6,13.7
			C65.6,13.7,65.6,13.7,65.6,13.7z M65.3,14.4C65.3,14.4,65.3,14.4,65.3,14.4l0.1-0.2c0-0.1,0.1-0.1,0.1-0.2c0-0.1,0.1-0.1,0.1-0.2
			c0-0.1,0.1-0.1,0.1-0.1l0,0c0,0,0,0,0,0c0.2,0.2,0.3,0.5,0.2,0.7c0,0.3-0.2,0.6-0.4,0.9c-0.1-0.2-0.2-0.5-0.2-0.7
			C65.3,14.6,65.3,14.5,65.3,14.4z M64.1,19.9c0.2-0.7,0.7-1.4,1.5-1.9c0,0,0.1,0,0.1-0.1c1,1.1,2.2,1.8,3.3,2.2
			c0.6,0.2,1.2,0.3,1.7,0.4c0.5,0,1,0,1.5,0c0.2,0,0.4-0.1,0.6-0.1c0,0.2,0.1,0.4,0.1,0.6c-0.3,0.2-0.6,0.4-0.8,0.6
			c-0.3,0.2-0.6,0.3-0.6,0.3c-0.1,0-0.1,0.1-0.1,0.2c0,0.1,0.1,0.2,0.2,0.1c0,0,0.3-0.1,0.6-0.3c0.2-0.1,0.4-0.2,0.6-0.3
			c0,0.2-0.1,0.3-0.1,0.4c-0.1,0.2-0.1,0.4-0.2,0.5c-0.1,0.1-0.1,0.2-0.1,0.2c0,0,0,0.1,0,0.1c0,0,0.1,0,0.1,0l0,0
			c0,0,0.2-0.2,0.3-0.7c0.1-0.2,0.1-0.4,0.2-0.7c0.1-0.1,0.3-0.2,0.4-0.3c0.2-0.2,0.4-0.4,0.6-0.6c0.1-0.1,0.2-0.2,0.2-0.3
			c0,0,0,0,0,0c0,0.1,0.1,0.2,0.1,0.3c0.1,0.4,0.3,0.7,0.4,1.1c0.1,0.4,0.3,0.9,0.4,1.3l0,0.3c0,0,0,0,0,0.1c0,0,0,0.1-0.1,0.2
			c0,0.1-0.1,0.2-0.2,0.3c-0.1,0.1-0.2,0.2-0.3,0.3c-0.2,0.2-0.5,0.4-0.7,0.6c-0.2,0.1-0.3,0.2-0.3,0.2c0,0-0.1-0.1-0.1-0.1
			c-0.2-0.1-0.5-0.3-0.7-0.4c0,0,0,0,0.1-0.1c0-0.1,0.1-0.1,0.1-0.2c0-0.1,0.1-0.1,0.1-0.2c0-0.1,0.1-0.2,0.1-0.2
			c0-0.1,0-0.2,0.1-0.3c0.1-0.2,0-0.3,0.1-0.5c0-0.1,0-0.2,0-0.2c0-0.1,0-0.1,0-0.2c0-0.2,0-0.4,0-0.4c0-0.1,0-0.1-0.1-0.1
			c-0.1,0-0.1,0-0.1,0.1l0,0c0,0,0,0.2,0,0.4c0,0.1,0,0.1,0,0.2c0,0.1,0,0.1,0,0.2c0,0.1,0,0.3-0.1,0.4c0,0.1-0.1,0.1-0.1,0.2
			c0,0.1-0.1,0.1-0.1,0.2c0,0.1-0.1,0.1-0.1,0.2c0,0-0.1,0.1-0.1,0.1c0,0-0.1,0.1-0.1,0.1c0,0-0.1,0-0.1,0.1c0,0,0,0,0,0
			c0,0,0,0,0,0c-0.1,0-0.2-0.1-0.3-0.1c-0.6-0.2-1.4-0.2-2.2,0c-0.4,0.1-0.8,0.3-1.2,0.6c-0.1-0.1-0.2-0.3-0.4-0.5
			c-0.2-0.2-0.5-0.5-0.9-0.8c-0.4-0.3-0.8-0.5-1.3-0.7c-0.5-0.2-1.1-0.4-1.8-0.4c0,0,0,0,0,0c0,0,0,0,0,0l0,0c0,0,0-0.1-0.1-0.2
			c0-0.1-0.1-0.3-0.1-0.4c0-0.1-0.1-0.2-0.1-0.3c0-0.1,0-0.3,0-0.4C63.9,20.6,64,20.3,64.1,19.9z M64,31.7c0,0.1-0.1,0.3-0.2,0.5
			c-0.1,0.1-0.1,0.2-0.2,0.4c-0.1,0.1-0.2,0.3-0.3,0.4c-0.2,0.3-0.5,0.6-0.8,0.9c-0.3,0.3-0.7,0.5-1.2,0.7c-0.2,0.1-0.5,0.2-0.7,0.3
			c-0.1,0-0.2,0.1-0.4,0.1c-0.1,0-0.2,0-0.4,0c-0.5,0-1.1-0.1-1.6-0.2c-0.5-0.2-1-0.4-1.4-0.7c-0.4-0.3-0.7-0.7-0.9-1.2
			c-0.1-0.2-0.1-0.5-0.2-0.7l0-0.2c0-0.1,0-0.1,0-0.2l0-0.1l0-0.1c0,0,0,0,0,0l0-0.2c0-0.5,0.1-1,0.3-1.4c0.2-0.4,0.4-0.8,0.7-1.1
			c0.6-0.6,1.3-0.9,1.7-1.1c0,0,0,0,0,0c0,0.1,0,0.1,0,0.2c0.2,0.8,0.6,1.5,1.1,2.1c0.5,0.6,1.2,1,1.8,1.2c0.6,0.2,1.3,0.3,1.8,0.4
			C63.5,31.6,63.8,31.6,64,31.7C64,31.7,64,31.7,64,31.7z M65.8,31.2c-0.3,0-0.7,0.1-1.1,0c-0.4,0-0.9,0-1.4-0.2
			c-0.5-0.1-1-0.3-1.5-0.6c-0.5-0.3-0.9-0.7-1.2-1.2c-0.3-0.5-0.6-1-0.7-1.6c0-0.1,0-0.1,0-0.2c0,0,0-0.2,0-0.2c0-0.1,0-0.3,0-0.4
			c0-0.3,0.1-0.6,0.2-0.9c0.2-0.6,0.5-1.1,1-1.6c0.4-0.5,0.9-0.8,1.5-1c0.6-0.2,1.2-0.3,1.7-0.3c0.6,0,1.1,0.1,1.6,0.3
			c0.5,0.2,0.9,0.4,1.3,0.6c0.4,0.2,0.7,0.4,0.9,0.6c0.2,0.2,0.4,0.3,0.5,0.4c-0.3,0.2-0.5,0.4-0.8,0.7c-0.6,0.7-1.1,1.6-1.4,2.6
			c-0.2,0.9-0.2,1.9,0.1,2.9C66.3,31.1,66.1,31.1,65.8,31.2z M66.5,39.2c-0.1-0.1-0.2-0.1-0.2-0.2c0,0-0.1-0.1-0.1-0.1
			c0,0-0.1-0.1-0.1-0.1c-0.2-0.2-0.3-0.3-0.4-0.6c-0.1-0.1-0.1-0.2-0.2-0.3c0-0.1-0.1-0.2-0.1-0.4c0-0.1-0.1-0.3-0.1-0.4l0-0.2
			c0-0.1,0-0.1,0-0.2c-0.1-0.3,0-0.5,0-0.8c0-0.1,0-0.3,0.1-0.4c0-0.1,0.1-0.2,0.1-0.4c0-0.1,0-0.1,0-0.2c0-0.1,0.1-0.1,0.1-0.2
			c0.1-0.1,0.1-0.2,0.1-0.3c0.1-0.1,0.1-0.2,0.2-0.3c0.1-0.1,0.1-0.2,0.2-0.3c0.1-0.2,0.3-0.3,0.4-0.5c0,0,0.1-0.1,0.1-0.1
			c0,0,0.1-0.1,0.1-0.1c0.1-0.1,0.1-0.1,0.2-0.2c0.1-0.1,0.3-0.2,0.4-0.3c0.1-0.1,0.2-0.1,0.2-0.2c0.4,0.5,1,0.9,1.5,1.2
			c1,0.5,2.1,0.7,3.2,0.6c0.2,0,0.3-0.1,0.5-0.1c0,0.1,0,0.3,0.1,0.5c0,0.1,0,0.3,0,0.4c0,0.1,0,0.3,0,0.5c0,0.2,0,0.3,0,0.5
			c0,0.2-0.1,0.3-0.1,0.5c0,0.2-0.1,0.3-0.1,0.5c-0.1,0.2-0.1,0.3-0.2,0.4c-0.1,0.1-0.1,0.3-0.2,0.4c-0.1,0.1-0.1,0.2-0.2,0.3
			c-0.1,0.1-0.1,0.2-0.2,0.3c-0.1,0.1-0.1,0.2-0.2,0.2C71.2,38.9,71,39,71,39c0,0,0,0,0,0c-0.3-0.1-0.6-0.2-0.8-0.2
			c-0.4-0.1-0.9-0.1-1.4,0c-0.5,0.1-0.9,0.3-1.3,0.6c-0.1,0.1-0.2,0.1-0.2,0.2c-0.1,0-0.3-0.1-0.4-0.1
			C66.8,39.5,66.6,39.4,66.5,39.2z M64.9,49L64.9,49C64.9,49,64.9,49.1,64.9,49z M73,51.7c-0.1,0.2-0.3,0.5-0.6,0.7
			c-0.3,0.2-0.6,0.5-0.9,0.7c-0.4,0.2-0.8,0.4-1.2,0.5c-0.1,0-0.2,0-0.3,0.1c-0.1,0-0.2,0-0.4,0.1c-0.1,0-0.3,0-0.4,0l0,0l0,0
			c0,0,0,0,0,0l0,0l0,0l-0.1,0l-0.2,0c-0.5,0-1-0.2-1.4-0.4c-0.4-0.2-0.9-0.4-1.2-0.8c-0.4-0.3-0.7-0.8-0.9-1.2
			c-0.2-0.5-0.3-1-0.3-1.5c0-0.1,0-0.2,0-0.4c0-0.1,0-0.3,0-0.4l0-0.1l0,0l0,0l0,0l0-0.2c0-0.1,0-0.2,0.1-0.3
			c0.1-0.5,0.3-0.9,0.5-1.2c0.2-0.4,0.4-0.7,0.7-0.9c0.2-0.3,0.5-0.5,0.7-0.6c0,0,0.1-0.1,0.1-0.1c0.1,0.1,0.2,0.2,0.3,0.2
			c0.2,0.2,0.4,0.3,0.6,0.4c0.1,0,0.1,0.1,0.2,0.1l0.2,0.1c0.1,0,0.2,0.1,0.4,0.1c0.2,0,0.3,0.1,0.5,0.1c0,0,0,0.1,0,0.2
			c0,0.2,0,0.5,0,0.8c0,0.3,0.1,0.8,0.3,1.2c0.2,0.5,0.5,1,1,1.4c0.5,0.4,1.1,0.7,1.7,1c0.4,0.1,0.7,0.2,1.1,0.2
			C73.1,51.5,73.1,51.6,73,51.7z M74.1,50.3c-0.6,0-1.2,0-1.7-0.2c-0.5-0.2-1-0.5-1.3-0.8c-0.3-0.3-0.6-0.6-0.7-1
			c-0.2-0.3-0.3-0.7-0.4-0.9c-0.1-0.3-0.1-0.5-0.1-0.6c0,0,0-0.1,0-0.1c0,0,0.1,0,0.1,0c0.5,0,0.9-0.1,1.4-0.2
			c0.4-0.1,0.8-0.3,1.2-0.6c0.3-0.3,0.6-0.7,0.8-1l0,0c0.1-0.1,0.1-0.3,0.2-0.4c0-0.1,0.1-0.3,0.1-0.4c0-0.1,0-0.3,0-0.4
			c0-0.1,0-0.3-0.1-0.4c0-0.1-0.1-0.3-0.1-0.4c0-0.1,0-0.1-0.1-0.2l-0.1-0.2c-0.1-0.1-0.1-0.2-0.2-0.4l-0.2-0.3c0,0,0,0,0,0
			c0,0-0.1,0-0.1,0c0,0,0,0.1,0,0.1l0,0c0.1,0.1,0.2,0.2,0.2,0.3c0.1,0.1,0.1,0.2,0.2,0.4l0.1,0.2c0,0.1,0.1,0.1,0.1,0.2
			c0,0.1,0.1,0.3,0.1,0.4c0,0.1,0,0.3,0,0.4c0,0.1,0,0.3,0,0.4c0,0.1,0,0.3-0.1,0.4c0,0.1-0.1,0.3-0.2,0.4l0,0l0,0
			c-0.2,0.4-0.5,0.7-0.8,0.9C72,45.9,71.7,46,71.3,46c-0.4,0-0.8,0-1.2-0.1c-0.4-0.1-0.8-0.2-1.1-0.4c-0.1,0-0.2-0.1-0.2-0.1
			l-0.1-0.1c0,0-0.1,0-0.1-0.1c-0.1-0.1-0.3-0.2-0.4-0.4c-0.2-0.3-0.5-0.6-0.6-0.9c-0.2-0.3-0.3-0.6-0.4-0.9C67,42.7,67,42.4,67,42
			c0-0.4,0.1-0.8,0.2-1.1c0.1-0.2,0.2-0.4,0.3-0.5c0.1-0.2,0.2-0.3,0.4-0.4c0.3-0.3,0.6-0.4,1-0.5c0.4-0.1,0.8-0.1,1.2-0.1
			c0.4,0,0.8,0.1,1.2,0.3c0.4,0.1,0.7,0.4,1.1,0.6c0.3,0.3,0.6,0.6,0.8,0.9c0.2,0.4,0.4,0.7,0.5,1.2c0,0,0,0,0,0c0,0,0,0,0,0v0
			c-0.1-0.3-0.2-0.7-0.3-1c0,0,0.1,0,0.2,0c0.2,0,0.4,0,0.7,0c0.3,0,0.7,0.1,1.1,0.2c0.1,0,0.2,0.1,0.3,0.1c0.1,0,0.2,0.1,0.3,0.2
			c0.2,0.1,0.4,0.2,0.6,0.4c0.4,0.3,0.8,0.8,1.1,1.3c0.3,0.5,0.6,1.1,0.7,1.7c0.1,0.6,0.1,1.3-0.1,1.9c-0.2,0.6-0.5,1.2-0.9,1.7
			c-0.1,0.1-0.2,0.2-0.3,0.4L77,49.1l0,0l0,0c0,0,0,0,0,0l0,0l0,0c-0.1,0.1-0.1,0.1-0.2,0.1c-0.2,0.2-0.5,0.4-0.8,0.5
			C75.3,50.1,74.7,50.3,74.1,50.3z M75.5,51.1C75.5,51.1,75.5,51.1,75.5,51.1C75.5,51.1,75.5,51.1,75.5,51.1
			C75.5,51.1,75.5,51.1,75.5,51.1z M73.7,58.8C73.7,58.8,73.7,58.8,73.7,58.8L73.7,58.8L73.7,58.8z M81.5,58
			c-0.1,0.5-0.4,1.2-0.8,1.8c-0.1,0.1-0.1,0.2-0.2,0.2c-0.1,0.1-0.1,0.2-0.2,0.2l-0.1,0.1L80,60.5c0,0,0,0-0.1,0
			c-0.1,0.1-0.2,0.1-0.3,0.2c-0.4,0.2-0.8,0.4-1.3,0.5c-0.5,0.1-1,0.1-1.5,0c-0.5-0.1-1-0.3-1.4-0.5c-0.2-0.1-0.4-0.3-0.6-0.4
			c-0.2-0.2-0.4-0.3-0.5-0.5c-0.1-0.1-0.2-0.2-0.2-0.3c-0.1-0.1-0.1-0.2-0.2-0.3c-0.1-0.1-0.1-0.3-0.2-0.4l0-0.1l0,0l0,0l-0.1-0.2
			c0-0.1-0.1-0.2-0.1-0.3c0-0.1-0.1-0.2-0.1-0.3c-0.1-0.2-0.1-0.4-0.1-0.6c0-0.4,0.1-0.8,0.2-1.1c0.1-0.3,0.3-0.6,0.5-0.9
			c0.2-0.2,0.3-0.4,0.5-0.5c0.1,0.3,0.3,0.7,0.6,1c0.4,0.6,0.9,1,1.6,1.4c0.6,0.3,1.3,0.5,2.1,0.6c0.2,0,0.3,0,0.5,0
			c0.2,0,0.4,0,0.6,0c0.4,0,0.8-0.1,1.1-0.2c0.2,0,0.4-0.1,0.6-0.2C81.5,57.7,81.5,57.8,81.5,58z M82.4,49c0.4,0.4,0.9,1.2,1.1,2.1
			c0.1,0.5,0.2,1,0.2,1.6c0,0.5-0.1,1.2-0.4,1.8c-0.2,0.6-0.5,1.2-1,1.6c-0.4,0.4-1,0.8-1.7,0.9c-0.3,0.1-0.6,0.1-1,0.1
			c-0.2,0-0.3,0-0.5,0c-0.2,0-0.3,0-0.5-0.1c-0.6-0.1-1.3-0.3-1.8-0.6c-0.5-0.3-0.9-0.7-1.2-1.1c-0.3-0.4-0.5-0.9-0.6-1.4
			c-0.2-0.9-0.1-1.8,0-2.3c0.1-0.3,0.1-0.5,0.2-0.5c0,0,0,0,0,0c0.3-0.1,0.6-0.2,0.9-0.4c0.3-0.2,0.7-0.4,1-0.6
			c0.1-0.1,0.2-0.1,0.2-0.2l0.1-0.1l0.1-0.1l0.1-0.1c0.1-0.1,0.3-0.3,0.4-0.5c0.3-0.4,0.5-0.8,0.7-1.2c0.1,0,0.2,0.1,0.3,0.1
			c0.3,0.1,0.8,0.3,1.4,0.4c0.4,0.1,0.9,0.1,1.5,0C82.1,48.7,82.2,48.9,82.4,49z M86.1,42.4c0,0.2,0,0.3,0,0.6c0,0.1,0,0.2,0,0.3
			c0,0.1,0,0.2-0.1,0.4c0,0.3-0.1,0.5-0.2,0.8c-0.1,0.3-0.2,0.6-0.4,0.9c-0.2,0.3-0.4,0.6-0.6,0.8c-0.2,0.3-0.5,0.5-0.8,0.7
			c-0.1,0.1-0.3,0.2-0.4,0.3c-0.1,0.1-0.3,0.2-0.4,0.3c-0.3,0.2-0.6,0.3-0.9,0.4c-0.6,0.1-1.2,0.1-1.7,0c-0.5-0.1-0.9-0.3-1.2-0.4
			c-0.1-0.1-0.2-0.1-0.3-0.2c-0.1,0-0.1,0-0.1-0.1c0,0,0-0.1,0-0.1c0.2-0.7,0.2-1.5,0-2.2c-0.2-0.7-0.5-1.3-0.9-1.8
			c-0.3-0.4-0.6-0.7-0.9-1c0,0,0,0,0,0l0,0c0,0,0,0,0-0.1c0,0,0.1-0.1,0.2-0.2c0.1-0.2,0.3-0.4,0.6-0.7c0.1-0.1,0.2-0.2,0.4-0.3
			c0.3,0.3,0.6,0.5,0.6,0.5c0,0,0.1,0,0.2,0c0.1,0,0.1-0.1,0-0.2c0,0-0.1-0.2-0.3-0.4c0-0.1-0.1-0.2-0.2-0.2
			c0.1-0.1,0.2-0.1,0.3-0.2c0.2-0.1,0.4-0.3,0.6-0.4c0.1,0,0.2-0.1,0.3-0.2c0.1-0.1,0.2-0.1,0.3-0.1c0.7-0.2,1.5-0.3,2.1-0.2
			c0.3,0.1,0.5,0.1,0.7,0.1c0.1,0,0.2,0,0.3,0.1c0,0,0,0,0,0c0.1,0.1,0.1,0.3,0.2,0.4c0.1,0.1,0.2,0.3,0.3,0.4
			c0.2,0.2,0.4,0.5,0.6,0.7c0.1,0.1,0.2,0.2,0.3,0.3l0,0l0,0l0,0l0,0l0,0l0.1,0.1l0.2,0.1l0.4,0.3l0.4,0.2c0,0,0,0,0,0
			C86.1,42.2,86.1,42.3,86.1,42.4z M93.6,37.6c0,0.1-0.1,0.2-0.1,0.3c0,0.2-0.2,0.5-0.3,0.9c-0.1,0.3-0.3,0.7-0.6,1
			c-0.3,0.3-0.6,0.7-1,1c-0.4,0.3-0.8,0.6-1.3,0.8c-0.2,0.1-0.5,0.2-0.7,0.3c-0.1,0-0.3,0-0.4,0.1l-0.2,0l-0.2,0
			c-0.5,0.1-1.1,0-1.6-0.2c-0.2-0.1-0.5-0.2-0.7-0.3l-0.3-0.2L85.8,41l-0.2-0.1l-0.1-0.1l0,0l0,0l0,0l0,0c-0.1-0.1-0.2-0.2-0.3-0.3
			c-0.2-0.2-0.4-0.4-0.5-0.6c-0.1-0.1-0.1-0.2-0.2-0.3c-0.1-0.1-0.1-0.2-0.2-0.3c-0.1-0.1-0.1-0.2-0.1-0.3c0-0.1-0.1-0.2-0.1-0.3
			c0-0.1-0.1-0.2-0.1-0.3c0-0.1,0-0.2-0.1-0.3c0-0.2,0-0.4-0.1-0.6c0-0.4,0-0.8,0.1-1.1c0.1-0.3,0.1-0.6,0.2-0.9
			c0.1-0.2,0.1-0.4,0.2-0.5c0.9,0.4,1.9,0.4,2.8,0.2c0.5-0.1,0.9-0.3,1.3-0.6c0,0,0.1-0.1,0.1-0.1c0,0.1,0.1,0.2,0.1,0.3
			c0.1,0.2,0.2,0.5,0.4,0.8c0.2,0.3,0.4,0.6,0.7,0.9c0.1,0.2,0.3,0.3,0.5,0.4c0.2,0.1,0.4,0.2,0.6,0.3c0.4,0.2,0.9,0.3,1.4,0.4
			c0.4,0,0.8,0.1,1.2,0.1C93.6,37.5,93.6,37.6,93.6,37.6z"/>
		<polygon fill="#FFFFFF" points="97,30 97,30 97,30 		"/>
		<path fill="#FFFFFF" d="M69.3,54.8C69.3,54.8,69.3,54.8,69.3,54.8L69.3,54.8z"/>
		<path fill="#FFFFFF" d="M79.6,41.2L79.6,41.2c0,0-0.1,0.1-0.2,0.2c0,0-0.1,0.1-0.1,0.1c0,0.1-0.1,0.1-0.1,0.1c0,0-0.1,0-0.1,0
			c0,0-0.1,0-0.1,0c-0.1,0-0.1,0-0.2,0c-0.1,0-0.1,0-0.1-0.1c0,0-0.1,0-0.1,0s0,0.1,0.1,0.2c0,0.1,0.1,0.1,0.2,0.1
			c0.1,0,0.2,0,0.3,0c0.1,0,0.2-0.1,0.3-0.2c0.1-0.1,0.1-0.1,0.1-0.2c0.1-0.1,0.1-0.2,0.1-0.2c0,0,0-0.1,0-0.1
			C79.7,41.2,79.7,41.2,79.6,41.2z"/>
		<path fill="#FFFFFF" d="M80.6,22.7c0,0-0.1,0-0.1,0.1c0,0-0.1,0-0.1,0c-0.1,0-0.2,0-0.3,0c-0.2-0.1-0.3-0.1-0.3-0.1s0,0.2,0.1,0.3
			c0.1,0.1,0.2,0.2,0.3,0.3c0.1,0,0.2,0,0.3,0c0.1,0,0.2,0,0.3-0.1c0,0,0.1,0,0.1-0.1l0,0l0,0l0,0l0,0l0,0l0,0
			c0.1,0,0.1-0.1,0.1-0.1c0.1-0.1,0.1-0.2,0.1-0.3c0-0.1,0-0.2,0-0.3c0-0.2-0.1-0.3-0.2-0.3c-0.1,0-0.1-0.1-0.1-0.1c0,0,0,0,0,0
			c-0.1,0-0.1,0-0.1,0.1l0,0.1c0,0,0,0,0,0.1c0,0,0,0,0,0.1c0,0,0,0,0,0.1c0,0,0,0,0,0.1c0,0,0,0,0,0.1
			C80.8,22.6,80.7,22.6,80.6,22.7L80.6,22.7L80.6,22.7C80.7,22.7,80.7,22.7,80.6,22.7L80.6,22.7C80.7,22.7,80.7,22.7,80.6,22.7
			C80.6,22.7,80.6,22.7,80.6,22.7z M80.7,22.7L80.7,22.7L80.7,22.7L80.7,22.7C80.7,22.7,80.7,22.7,80.7,22.7z M80.7,22.7L80.7,22.7
			L80.7,22.7C80.7,22.7,80.7,22.7,80.7,22.7z"/>
		<path fill="#FFFFFF" d="M46.6,102.3c-0.1-0.1-0.1-0.1,0-0.2c0.1-0.1,0.4-0.2,0.6-0.5c0.3-0.3,0.4-0.7,0.4-1.2
			c0-0.5-0.1-0.9-0.4-1.2c-0.4-0.4-1-0.6-1.7-0.6h-3.4c-0.1,0.1-0.1,0.2,0,0.3c0.4,0.1,0.6,0.3,0.6,0.6v5.7c0,0.4-0.2,0.6-0.6,0.6
			c-0.1,0.1-0.1,0.2,0,0.3h3.6c0.8,0,1.3-0.2,1.7-0.6c0.4-0.4,0.6-0.8,0.6-1.3c0-0.6-0.2-1-0.5-1.3
			C47.2,102.5,46.9,102.3,46.6,102.3z M43.5,99.6c0-0.5,0.2-0.7,0.7-0.7H45c0.6,0,1,0.2,1.4,0.5c0.3,0.3,0.4,0.7,0.4,1.2
			c0,0.5-0.1,0.8-0.4,1.1c-0.3,0.3-0.7,0.5-1.3,0.5h-1.3c-0.2,0-0.3-0.1-0.3-0.3V99.6z M46.7,105.3c-0.3,0.3-0.8,0.5-1.3,0.5h-1.1
			c-0.5,0-0.7-0.2-0.7-0.7v-2.4c0-0.2,0.1-0.3,0.3-0.3h1.4c0.7,0,1.2,0.2,1.5,0.5c0.3,0.3,0.4,0.7,0.4,1.2
			C47.1,104.6,47,105,46.7,105.3z"/>
		<path fill="#FFFFFF" d="M59.9,98.9c0.1-0.1,0.1-0.2,0-0.3h-2c-0.1,0.1-0.1,0.2,0,0.3c0.4,0.1,0.6,0.3,0.6,0.6v0.4l-4,4
			c-0.2,0.2-0.3,0.2-0.3-0.1v-4.3c0-0.3,0.2-0.6,0.6-0.6c0.1-0.1,0.1-0.2,0-0.3h-2c-0.1,0.1-0.1,0.2,0,0.3c0.4,0.1,0.6,0.3,0.6,0.6
			v5.7c0,0.3-0.2,0.6-0.6,0.6c-0.1,0.1-0.1,0.2,0,0.3h2c0.1-0.1,0.1-0.2,0-0.3c-0.4-0.1-0.6-0.3-0.6-0.6v-0.6l4-4
			c0.2-0.2,0.3-0.2,0.3,0.1v4.4c0,0.3-0.2,0.6-0.6,0.6c-0.1,0.1-0.1,0.2,0,0.3h2c0.1-0.1,0.1-0.2,0-0.3c-0.4-0.1-0.6-0.3-0.6-0.6
			v-5.7C59.2,99.2,59.4,99,59.9,98.9z"/>
		<path fill="#FFFFFF" d="M71.6,98.9c0.1-0.1,0.1-0.2,0-0.3h-2c-0.1,0.1-0.1,0.2,0,0.3c0.4,0.1,0.6,0.3,0.6,0.6v2
			c0,0.1-0.1,0.2-0.2,0.2h-3.8c-0.1,0-0.2-0.1-0.2-0.2v-2c0-0.3,0.2-0.6,0.6-0.6c0.1-0.1,0.1-0.2,0-0.3h-2c-0.1,0.1-0.1,0.2,0,0.3
			c0.4,0.1,0.6,0.3,0.6,0.6v5.7c0,0.3-0.2,0.6-0.6,0.6c-0.1,0.1-0.1,0.2,0,0.3h2c0.1-0.1,0.1-0.2,0-0.3c-0.4-0.1-0.6-0.3-0.6-0.6v-3
			c0-0.1,0.1-0.2,0.2-0.2h3.8c0.1,0,0.2,0.1,0.2,0.2v3c0,0.4-0.2,0.6-0.6,0.6c-0.1,0.1-0.1,0.2,0,0.3h2c0.1-0.1,0.1-0.2,0-0.3
			c-0.4-0.1-0.6-0.3-0.6-0.6v-5.7C70.9,99.2,71.1,99,71.6,98.9z"/>
		<path fill="#FFFFFF" d="M82.1,105.2l-2.5-6.5c-0.1-0.1-0.1-0.1-0.2-0.1c0,0-0.1,0-0.1,0c-0.2,0.2-0.6,0.4-1,0.6
			c-0.1,0.1-0.1,0.2,0.1,0.2c0.3,0,0.4,0.1,0.3,0.3l-1.9,5.2c-0.2,0.5-0.5,0.8-1,0.9c-0.2,0.1-0.2,0.2,0,0.3h2
			c0.1-0.1,0.1-0.1,0-0.3c-0.1,0-0.3-0.1-0.4-0.1c-0.2-0.1-0.3-0.3-0.3-0.5c0.1-0.4,0.3-0.8,0.4-1.1c0.1-0.2,0.2-0.3,0.4-0.3h2.5
			c0.2,0,0.3,0.1,0.4,0.3l0.4,1c0,0.1,0,0.2,0,0.3c0,0.2-0.2,0.3-0.7,0.5c-0.2,0.1-0.2,0.2,0,0.3h2.5c0.1-0.1,0.1-0.1,0-0.3
			C82.5,105.7,82.2,105.5,82.1,105.2z M80.3,103.5h-2.4c-0.1,0-0.2-0.1-0.2-0.2l1.2-3.3c0.1-0.2,0.2-0.2,0.3,0l1.2,3.3
			C80.5,103.4,80.4,103.5,80.3,103.5z"/>
		<path fill="#FFFFFF" d="M89.9,98.7h-3.2c-0.1,0.1-0.1,0.2,0,0.3c0.4,0.1,0.6,0.3,0.6,0.6v5.7c0,0.3-0.2,0.6-0.6,0.6
			c-0.1,0.1-0.1,0.2,0,0.3h2c0.1-0.1,0.1-0.2,0-0.3c-0.4-0.1-0.6-0.3-0.6-0.6v-2c0-0.1,0.1-0.2,0.2-0.2h1.6c0.9,0,1.6-0.3,2.1-0.8
			c0.3-0.3,0.5-0.8,0.5-1.4c0-0.6-0.2-1.1-0.6-1.4C91.5,98.9,90.8,98.7,89.9,98.7z M91.2,102.1c-0.4,0.4-1,0.7-1.7,0.7h-0.9
			c-0.3,0-0.5-0.2-0.5-0.5v-2.7c0-0.5,0.2-0.7,0.7-0.7h0.7c0.7,0,1.2,0.2,1.6,0.6c0.3,0.3,0.5,0.8,0.5,1.4
			C91.6,101.4,91.5,101.9,91.2,102.1z"/>
		<path fill="#FFFFFF" d="M103.4,98.9c0.1-0.1,0.1-0.2,0-0.3h-2.1c-0.1,0.1-0.1,0.2,0,0.3c0.4,0.1,0.6,0.3,0.6,0.6v2
			c0,0.1-0.1,0.2-0.2,0.2h-3.8c-0.1,0-0.2-0.1-0.2-0.2v-2c0-0.3,0.2-0.6,0.6-0.6c0.1-0.1,0.1-0.2,0-0.3h-2.1c-0.1,0.1-0.1,0.2,0,0.3
			c0.4,0.1,0.6,0.3,0.6,0.6v5.7c0,0.3-0.2,0.6-0.6,0.6c-0.1,0.1-0.1,0.2,0,0.3h2.1c0.1-0.1,0.1-0.2,0-0.3c-0.4-0.1-0.6-0.3-0.6-0.6
			v-3c0-0.1,0.1-0.2,0.2-0.2h3.8c0.1,0,0.2,0.1,0.2,0.2v3c0,0.4-0.2,0.6-0.6,0.6c-0.1,0.1-0.1,0.2,0,0.3h2.1c0.1-0.1,0.1-0.2,0-0.3
			c-0.4-0.1-0.6-0.3-0.6-0.6v-5.7C102.7,99.2,102.9,99,103.4,98.9z"/>
		<path fill="#FFFFFF" d="M113.2,98.9c0.1-0.1,0.1-0.2,0-0.3h-3c-0.9,0-1.6,0.2-2.1,0.7c-0.4,0.4-0.6,0.8-0.6,1.4
			c0,0.6,0.2,1,0.5,1.4c0.3,0.3,0.7,0.6,1.3,0.7c-0.3,1.3-0.9,2.5-2,3.5c0,0.1,0.1,0.2,0.3,0.1c0.3-0.2,0.7-0.5,1-0.9
			c0.4-0.4,0.9-1.2,1.5-2.5c0.1-0.1,0.2-0.2,0.4-0.2h1c0.1,0,0.2,0.1,0.2,0.2v2.1c0,0.4-0.2,0.6-0.6,0.6c-0.1,0.1-0.1,0.2,0,0.3h2
			c0.1-0.1,0.1-0.2,0-0.3c-0.4,0-0.6-0.2-0.6-0.6v-5.7C112.6,99.1,112.8,98.9,113.2,98.9z M111.7,102.4c0,0.1-0.1,0.2-0.2,0.2h-1
			c-0.6,0-1.2-0.2-1.7-0.7c-0.3-0.3-0.4-0.7-0.4-1.2c0-0.5,0.2-0.9,0.5-1.3c0.3-0.3,1.1-0.5,2.2-0.5c0.4,0,0.6,0.2,0.6,0.6V102.4z"
			/>
		<path fill="#FFFFFF" d="M87.2,70.8c0.4,0.2,1,0.2,1.5,0c0.5-0.2,1.6-1,2.1-2.1c0.1-0.3-0.2-0.4-0.4-0.3c0,0,0,0,0,0
			c-0.1,0.2-0.3,0.3-0.5,0.5c-0.4,0.4-0.2,0.3-0.6,0.5c-0.4,0.3-0.8,0.3-1.1,0.2c-0.4-0.2-0.7-0.7-0.9-1.5c-0.1-0.3-0.1-0.7-0.2-1.1
			c0-0.1-0.2-0.8-0.7-0.6c-0.2,0.1-0.3,0.4-0.3,0.7C86,67.4,85.7,70,87.2,70.8z"/>
		<path fill="#FFFFFF" d="M93.6,83c-0.4,0.3-0.8,0.5-1.2,0.8c-0.4,0.3-0.7,0.4-1.2,0.6c-0.5,0.2-1,0.3-1.3,0
			c-0.4-0.3-0.6-0.8-0.6-1.7c0-0.8,0-1.7,0.2-2.7c0.1-1,0.3-2,0.5-3c0.2-1,0.4-1.8,0.5-2.5c-0.1,0-0.2-0.1-0.4-0.1
			c-0.2-0.1-0.4-0.1-0.6-0.1c-0.2,0-0.4,0-0.5,0c-0.2,0-0.2,0.1-0.3,0.3c0,0.9-0.2,1.9-0.6,3c-0.4,1.1-0.9,2.2-1.5,3.2
			c-0.6,1-1.1,1.8-1.7,2.4c-0.6,0.6-0.9,0.8-1.1,0.7c-0.2-0.1-0.3-0.3-0.4-0.6c-0.1-0.3-0.1-0.6-0.1-0.9c0-0.3,0-1.3,0-1.4
			c0.3-2.5,0.6-4.5,0.9-6.3c0.3-1.7,0.4-2.9,0.3-3.6c-0.1-0.2-0.2-0.3-0.4-0.3c-0.2-0.1-0.4-0.1-0.5-0.2c-0.2-0.1-0.4-0.1-0.6-0.1
			c0,0.9-0.1,1.8-0.2,2.9c-0.1,1-0.2,2.1-0.3,3.2c-0.1,1.1-0.2,2.1-0.3,3.1c-0.1,0.6-0.2,1.8-0.2,2.9c-0.1-0.1-0.3,0-0.6,0.2
			c-0.4,0.3-0.8,0.5-1.2,0.8c-0.4,0.3-0.7,0.4-1.2,0.6c-0.5,0.2-1,0.3-1.3,0c-0.4-0.3-0.6-0.8-0.6-1.7c0-0.8,0-1.7,0.2-2.7
			c0.1-1,0.3-2,0.5-3c0.2-1,0.4-1.8,0.5-2.5c-0.1,0-0.2-0.1-0.4-0.1c-0.2-0.1-0.4-0.1-0.6-0.1c-0.2,0-0.4,0-0.5,0
			c-0.2,0-0.2,0.1-0.3,0.3c0,0.9-0.2,1.9-0.6,3C75.5,79,75,80,74.5,81c-0.6,1-1.1,1.8-1.7,2.4c-0.6,0.6-0.9,0.8-1.1,0.7
			c-0.2-0.1-0.3-0.3-0.4-0.6c-0.1-0.3-0.1-0.6-0.1-0.9c0-0.3,0-1.3,0-1.4c0.3-2.5,0.6-4.5,0.9-6.3c0.3-1.7,0.4-2.9,0.3-3.7
			c-0.1-0.2-0.2-0.3-0.4-0.3c-0.2-0.1-0.4-0.1-0.5-0.2c-0.2-0.1-0.4-0.1-0.6-0.1c0,0.9-0.1,1.8-0.2,2.9c-0.1,1-0.2,2.1-0.3,3.2
			c-0.1,1.1-0.2,2.1-0.3,3.1c-0.1,0.7-0.2,2.3-0.3,3.5c-0.1,0-0.3,0.1-0.5,0.3c-0.3,0.3-0.7,0.6-1.2,0.9c-0.4,0.3-0.9,0.6-1.3,0.8
			c-0.5,0.2-0.8,0.2-1.2,0c-0.4-0.3-0.6-0.8-0.6-1.6C65,82.9,65,82,65.1,81c0.1-1,0.2-2,0.4-3c0.2-1,0.3-1.8,0.4-2.5
			c-0.1,0-0.2-0.1-0.4-0.1c-0.2,0-0.4-0.1-0.6-0.1c-0.2,0-0.4,0-0.5,0c-0.2,0-0.2,0.1-0.3,0.3c0,0.4-0.1,1.7-0.2,3.6
			c-0.4,0.2-0.7,0.4-1.4,0.7c-1,0.5-1.9,0.8-2.7,1c-0.2,0.1-0.4,0.1-0.6,0.1c0.2-1.9,0.4-3.6,0.5-5c0.2-1.7,0.3-3,0.2-3.7
			c-0.1-0.2-0.3-0.3-0.4-0.3c-0.2-0.1-0.4-0.1-0.5-0.1c-0.2,0-0.4-0.1-0.6-0.1c0,0.9,0,1.8-0.1,2.9c0,1-0.1,2.1-0.2,3.2L57.9,81
			c-0.1,1-0.1,1.9-0.1,2.8c0,0.2,0,0.3,0,0.6c-0.1,0-0.3,0.1-0.6,0.3c-0.3,0.3-0.7,0.6-1.2,0.9c-0.4,0.3-0.9,0.6-1.3,0.8
			c-0.5,0.2-0.8,0.2-1.2,0c-0.4-0.3-0.6-0.8-0.6-1.6c-0.1-0.8,0-1.7,0.1-2.7c0.1-1,0.2-2,0.4-3c0.2-1,0.3-1.8,0.4-2.5
			c-0.1,0-0.2-0.1-0.4-0.1c-0.2,0-0.4-0.1-0.6-0.1c-0.2,0-0.4,0-0.5,0c-0.2,0-0.2,0.1-0.3,0.3c0,0.4-0.1,1.7-0.2,3.6
			c-0.4,0.2-0.7,0.4-1.4,0.7c-1,0.5-1.9,0.8-2.7,1C47.4,81.9,47.2,82,47,82c0.2-1.9,0.4-3.6,0.5-5c0.2-1.7,0.3-3,0.2-3.7
			c-0.1-0.2-0.3-0.3-0.4-0.3c-0.2-0.1-0.4-0.1-0.5-0.1c-0.2,0-0.4-0.1-0.6-0.1c0,0.9,0,1.8-0.1,2.9c0,1-0.1,2.1-0.2,3.2l-0.2,3.1
			c-0.1,1-0.1,1.9-0.1,2.6c-0.1,0-0.3,0.1-0.5,0.3c-0.3,0.3-0.7,0.6-1.1,1c-0.4,0.4-0.7,0.5-1.1,0.8c-0.4,0.3-1,0.4-1.3,0.2
			c-0.4-0.2-0.7-0.7-0.8-1.6c-0.1-0.8-0.2-1.7-0.2-2.7c0-1,0-2,0.1-3c0.1-1,0.1-1.9,0.2-2.5c-0.1,0-0.2-0.1-0.4-0.1
			c-0.2,0-0.4,0-0.6,0c-0.2,0-0.4,0-0.5,0.1c-0.2,0-0.2,0.2-0.2,0.3c0.2,0.9,0.1,1.9-0.2,3.1c-0.3,1.2-0.6,2.3-1,3.4
			c-0.4,1.1-0.9,1.9-1.3,2.6c-0.5,0.7-0.8,0.9-1,0.8c-0.2-0.1-0.3-0.3-0.4-0.5C35,86.5,35,86.3,34.9,86c-0.1-0.3-0.2-1.3-0.2-1.4
			c0-2.5,0-4.6,0-6.3c0-1.8,0-3-0.2-3.7c-0.1-0.1-0.3-0.2-0.5-0.3c-0.2,0-0.4-0.1-0.5-0.1c-0.2,0-0.4,0-0.6,0
			c0.1,0.9,0.2,1.8,0.2,2.9c0.1,1,0.1,2.1,0.2,3.2c0,1.1,0.1,2.1,0.1,3.1c0,1,0.2,3.6,0.4,4.8c0.1,0.5,0.3,0.8,0.4,1
			c0.2,0.2,0.4,0.4,0.7,0.5c0.3,0.1,0.9,0.1,1.3-0.1c0.2-0.1,0.5-0.4,0.8-0.8c0.3-0.4,0.5-0.9,0.8-1.4c0.3-0.6,0.6-1.1,0.8-1.7
			c0.3-0.6,0.5-1.2,0.8-1.7c0.1,0.4,0.1,0.8,0.2,1.3c0.1,0.5,0.1,0.9,0.2,1.4c0.1,0.4,0.3,1.3,0.8,1.6c0.4,0.3,0.9,0.5,1.7,0.1
			c0.9-0.4,2.3-1.7,2.6-2.2c0.2-0.3,0.5-0.8,0.7-1.1c-0.1,0.9-0.3,2.4-0.3,2.9c0,0.5,1,0.6,1.2,0.5c0.2-0.3,0.3-0.8,0.3-1.3
			c0,0,0.1-3.3,0.1-3.4c0.3-0.1,0.7-0.2,1.1-0.3c0.6-0.2,1.2-0.4,1.8-0.7c0.3-0.1,1.2-0.5,1.9-1c0,0.1,0,0.1,0,0.2
			c0,0.3,0,2.2,0,2.5c0,0.5,0,0.9,0.1,1.4c0,0.4,0.1,0.7,0.2,1c0.1,0.3,0.3,0.6,0.5,0.8c0.4,0.2,0.9,0.2,1.4,0.1
			c0.6-0.1,1.2-0.4,1.7-0.7c0.5-0.3,1-0.7,1.4-1.1c0.4-0.4,0.6-0.8,0.8-1.2c-0.1,0.9-0.3,2-0.2,2.4c0,0.5,1,0.6,1.2,0.5
			c0.2-0.3,0.3-0.8,0.3-1.3c0,0,0.1-3.3,0.1-3.4c0.3-0.1,0.7-0.2,1.1-0.3c0.6-0.2,1.2-0.4,1.8-0.7c0.3-0.1,1.2-0.5,1.9-1
			c0,0.1,0,0.1,0,0.2c0,0.3,0,2.2,0,2.5c0,0.5,0,0.9,0.1,1.4c0,0.4,0.1,0.7,0.2,1c0.1,0.3,0.3,0.6,0.5,0.8c0.4,0.2,0.9,0.2,1.4,0.1
			c0.6-0.1,1.2-0.4,1.7-0.7c0.5-0.3,1-0.7,1.4-1.1c0.3-0.3,0.5-0.7,0.7-1c0,0.3,0,0.6,0,0.8c0,0.5,0.1,0.9,0.2,1
			c0.2,0.2,0.3,0.4,0.7,0.6c0.3,0.2,0.9,0.2,1.3,0.1c0.2-0.1,0.6-0.3,0.9-0.7c0.3-0.4,0.6-0.8,1-1.3c0.4-0.5,0.7-1,1.1-1.6
			c0.4-0.6,0.7-1.1,1-1.5c0,0.4,0,0.8,0,1.3c0,0.5,0,0.9,0,1.4c0,0.4,0.1,1.3,0.5,1.7c0.3,0.3,0.8,0.6,1.6,0.4
			c1-0.2,2.5-1.4,2.9-1.8c0.4-0.4,0.8-0.9,0.9-1.2c0,0.7-0.1,1.3,0,1.7c0,0.5,0.1,0.9,0.2,1c0.2,0.2,0.3,0.4,0.7,0.6
			c0.3,0.2,0.9,0.2,1.3,0.1c0.2-0.1,0.6-0.3,0.9-0.7c0.3-0.4,0.6-0.8,1-1.3c0.4-0.5,0.7-1,1.1-1.6c0.4-0.6,0.7-1.1,1-1.5
			c0,0.4,0,0.8,0,1.3c0,0.5,0,0.9,0,1.4c0,0.4,0.1,1.3,0.5,1.7c0.3,0.3,0.8,0.6,1.6,0.4c1-0.2,2.5-1.4,2.9-1.8c0.4-0.4,1-1.2,1-1.3
			C94.1,82.7,93.9,82.8,93.6,83z"/>
		<path fill="#FFFFFF" d="M28.1,100.5c-0.4-0.1-0.9-0.3-1.3-0.4c-0.4-0.1-0.9-0.3-1.4-0.4c-0.5-0.2-1-0.3-1.5-0.5
			c-1-0.4-2.1-0.7-3.2-1.1c-0.5-0.2-1-0.3-1.5-0.5c0,0,0,0,0,0c2.7-1.6,5.2-3.7,7-6.1c0.5-0.6,0.9-1.3,1.3-1.9
			c0.1-0.2,0.2-0.3,0.3-0.5c0.1-0.2,0.2-0.4,0.3-0.5c0.2-0.3,0.3-0.7,0.4-1c0.5-1.4,0.9-2.9,0.9-4.3c0.1-1.5-0.1-2.9-0.6-4.3
			c-0.5-1.4-1.4-2.6-2.6-3.3l-0.2-0.1l0,0L26,75.2c-0.1,0-0.1-0.1-0.2-0.1l-0.2-0.1c-0.2-0.1-0.3-0.2-0.5-0.2
			c-0.2-0.1-0.3-0.1-0.5-0.2c-0.6-0.2-1.2-0.4-1.8-0.4c-1.2-0.1-2.3,0-3.4,0.2c-0.6,0.1-1.2,0.3-1.8,0.5c1.5-1.6,3.2-3.7,4.6-6.4
			c1.4-2.8,0.4-5-0.4-5.7c-0.3-0.4-0.8-0.7-1.6-0.9c-0.7-0.2-1.6-0.3-2.5-0.3c-0.9,0-1.9,0.2-2.8,0.5c-1,0.3-2.5,1.3-2.5,1.3
			c-0.1-0.1-0.1-0.2-0.1-0.4c0-0.1-0.1-0.3-0.2-0.4c-0.1-0.2-0.1-0.3-0.2-0.5c-0.1,0-0.3,0.2-0.6,0.4c-0.3,0.3-0.6,0.6-0.8,0.8
			c0,0.2,0.3,1.1,0.3,1.1S9.6,65,9,65.5c-0.6,0.5-1.2,1-1.7,1.6c-0.5,0.6-0.9,1.3-1.2,2c-0.3,0.7-0.4,1.5-0.3,2.3
			c0.1,0.2,0.2,0.3,0.3,0.3c0,0,0.1-0.1,0.1-0.3c0.1-0.2,0.1-0.4,0.2-0.6c0.1-0.3,0.2-0.5,0.4-0.8c0.2-0.5,0.5-0.9,1-1.4
			c0.5-0.5,0.9-0.9,1.4-1.3c0.5-0.4,0.9-0.7,1.3-0.9c0.4-0.2,0.6-0.3,0.6-0.3c0.2,1.1,0.5,2.2,0.7,3c0.2,0.8,0.4,1.6,0.5,2.4
			c0.2,0.8,0.3,1.5,0.4,2.3c0.1,0.8,0.3,1.9,0.5,3c-0.5,0.4-1.7,1.1-1.9,1.2c-0.2,0.2-0.4,0.3-0.6,0.4c-0.2,0.1-0.3,0.3-0.5,0.5
			c0,0.3,0,0.5,0.1,0.7c0,0.2,0.1,0.3,0.1,0.5c0.1,0.2,0.2,0.4,0.3,0.4c0.2,0.1,0.5,0.2,0.6,0.2c0,0,0.4-0.2,0.5-0.3
			c0,0,0.3-0.2,0.9-0.6c0.3-0.2,0.6-0.4,1-0.6c0.1,0.5,0.2,1.2,0.3,1.9c0.2,1,0.3,2.1,0.6,3.3c0.1,0.6,0.6,4.8,0.7,8.1
			c0.4-0.1,0.9-0.2,1.4-0.3c0.2-0.1,0.4-0.2,0.5-0.3c-0.1-0.9-0.7-4-0.9-5c-0.2-1.2-0.5-2.4-0.7-3.6c-0.2-1.2-0.4-2.3-0.5-3.4
			c-0.1-0.5-0.1-1-0.2-1.4c0.1-0.1,0.3-0.1,0.4-0.2c1.2-0.6,2.6-1.2,4.3-1.6c0.8-0.2,1.8-0.3,2.7-0.2c0.5,0,0.9,0.1,1.3,0.3
			c0.1,0,0.2,0.1,0.3,0.1c0.1,0,0.2,0.1,0.3,0.1l0.1,0.1c0.1,0,0.1,0.1,0.2,0.1l0.2,0.1l0,0l0,0l0.1,0.1c0.8,0.5,1.4,1.3,1.8,2.3
			c0.4,1,0.6,2.2,0.5,3.4c0,1.2-0.3,2.5-0.7,3.7c-0.1,0.3-0.2,0.6-0.4,0.9c-0.1,0.2-0.1,0.3-0.2,0.4c-0.1,0.1-0.2,0.3-0.2,0.4
			c-0.3,0.6-0.7,1.2-1.1,1.7c-1.6,2.3-3.9,4.2-6.4,5.8c-0.4,0.2-0.8,0.5-1.2,0.7c-1.2-0.4-2.4-0.8-3.6-1.3c-1.3-0.5-2.6-1-4-1.3
			c-1.4-0.4-2.9-0.7-4.5-0.6c-0.2,0-0.4,0-0.6,0.1l-0.1,0c0,0-0.1,0-0.1,0l0,0l-0.1,0l-0.3,0.1c-0.2,0-0.4,0.1-0.6,0.2
			c-0.2,0.1-0.4,0.1-0.6,0.2c-0.7,0.3-1.4,0.8-2,1.5c-0.1,0.2-0.3,0.3-0.4,0.5c-0.1,0.1-0.1,0.2-0.2,0.3l-0.1,0.3
			c0,0.1-0.1,0.2-0.1,0.3c0,0.1-0.1,0.2-0.1,0.3C0,97.7,0,98,0,98.2c0,0.1,0,0.2,0,0.4l0.1,0.3c0.1,0.2,0.2,0.4,0.3,0.6l0,0.1l0,0
			l0,0.1l0.1,0.1l0.2,0.2c0.1,0.2,0.3,0.4,0.4,0.5c0.6,0.7,1.4,1.1,2.2,1.4c0.8,0.3,1.7,0.3,2.5,0.3c1.7,0,3.3-0.4,4.8-0.9
			c1.5-0.5,3-1.1,4.4-1.8c0.4-0.2,0.7-0.3,1.1-0.5c0.3-0.2,0.7-0.3,1-0.5c0.3-0.2,0.7-0.4,1-0.6c0.8,0.3,1.5,0.5,2.2,0.7
			c1.1,0.4,2.2,0.7,3.2,1.1c0.5,0.2,1,0.3,1.5,0.5c0.5,0.1,1,0.3,1.4,0.4c0.5,0.1,0.9,0.3,1.3,0.4c0.4,0.1,2.6,0.6,3.8,0.7
			c3,0.4,4,0.4,4,0.4s-4.8-1-6.3-1.4C29,100.8,28.5,100.6,28.1,100.5z M14.7,75.7c-0.3-1.7-0.7-3.6-0.9-5.2
			c-0.3-1.6-0.6-3.3-0.9-5.4c0.9-0.6,1.9-1,2.9-1.3c1-0.3,1.9-0.4,2.7-0.4c0.8,0,1.5,0.2,2,0.5c0.5,0.3,0.8,0.8,0.9,1.4
			c0.2,2.5-1.7,5.2-2.3,6.1C18.2,72.3,16.1,74.7,14.7,75.7z M15.5,97.7c-0.3,0.2-0.7,0.3-1,0.5c-1.4,0.7-2.8,1.3-4.2,1.8
			c-1.4,0.5-2.9,0.9-4.3,0.9c-0.7,0-1.4,0-2.1-0.2c-0.6-0.2-1.2-0.5-1.7-1c-0.1-0.1-0.2-0.2-0.3-0.4l-0.2-0.2L1.6,99l0,0l0,0l0-0.1
			c-0.1-0.1-0.2-0.3-0.2-0.4l-0.1-0.2c0-0.1,0-0.1,0-0.2c-0.1-0.6,0.2-1.1,0.6-1.6c0.4-0.5,1-0.9,1.6-1.2c0.1-0.1,0.3-0.1,0.5-0.2
			C4.1,95,4.2,95,4.3,94.9l0.3-0.1l0.1,0l0,0c0,0,0,0,0,0c0,0,0,0,0,0l0.1,0c0.2,0,0.3-0.1,0.5-0.1c1.4-0.1,2.7,0.1,4.1,0.4
			c1.3,0.3,2.6,0.8,3.9,1.2c1,0.3,1.9,0.6,2.8,0.9C15.9,97.5,15.7,97.6,15.5,97.7z"/>
		<path fill="#FFFFFF" d="M155.5,78.3c0,0-0.4-0.1-1-0.2c-0.7-0.2-1.6-0.4-2.8-0.9c-1.2-0.5-2.6-1.2-3.9-2.4
			c-0.6-0.6-1.2-1.4-1.6-2.2c-0.4-0.9-0.6-1.8-0.5-2.9c1.2-0.3,2.3-0.7,3.3-1.3c0.6-0.4,1.2-0.8,1.7-1.3c0.2-0.3,0.4-0.6,0.6-1
			c0.1-0.4,0.2-0.8,0.1-1.1c0-0.4-0.2-0.7-0.3-1.1l-0.1-0.1l-0.1-0.1c0-0.1-0.1-0.1-0.1-0.2c-0.1-0.2-0.3-0.3-0.4-0.4
			c-0.3-0.2-0.7-0.4-1.1-0.3c-0.4,0-0.7,0.2-1,0.4c-0.6,0.4-1,0.9-1.4,1.4c-0.4,0.5-0.7,1.1-0.9,1.7c-0.4,1-0.6,2-0.7,2.9
			c-0.1,0-0.3,0.1-0.4,0.1c-1.3,0.3-2.8,0.3-4.2,0.2c-0.6,0-1.3-0.1-1.9-0.2c0-0.1,0.1-0.2,0.1-0.4c0.6-1.7,1.2-3.7,1.5-6
			c0-0.6,0.1-1.2,0.1-1.8c0-0.3,0-0.6,0-0.9l0-0.2l0-0.1l0-0.1c0,0,0,0,0-0.1l0,0c0-0.1,0-0.3,0-0.4c0-0.3-0.1-0.6-0.2-1
			c-0.1-0.3-0.2-0.6-0.3-1c-0.2-0.6-0.6-1.3-1-1.8c-0.5-0.5-1.1-1-1.8-1.3c-0.7-0.3-1.4-0.5-2.1-0.5c-1.4-0.1-2.9,0.1-4.2,0.5
			c-0.7,0.2-1.4,0.6-2,1c-0.6,0.4-1.2,1-1.6,1.6c-0.5,0.6-0.8,1.4-0.9,2.2c-0.1,0.8-0.1,1.6,0,2.4c0.2,0.8,0.4,1.5,0.8,2.2l0.1,0.1
			c0,0.1,0,0.1,0.1,0.1l0.1,0.2l0.1,0.2l0.2,0.3c0.2,0.3,0.4,0.6,0.7,0.9c1,1.2,2.3,2.1,3.6,2.8c1.4,0.7,2.8,1.1,4.3,1.4
			c0.2,0,0.5,0.1,0.7,0.1c-0.4,1-0.9,1.9-1.3,2.6c-0.6,1.1-1.1,2-1.5,2.5c0,0.1-0.1,0.1-0.1,0.2c-0.1-0.1-0.2-0.2-0.3-0.4
			c0,0.1-0.6-1.2-2.8-0.4c-0.3,0.1-0.5,0.2-0.7,0.3c-0.2,0.1-0.5,0.3-0.8,0.5c-0.3,0.2-1.3,1.1-2.1,1.9c-0.5,0.5-0.9,1.1-1.4,1.8
			c-0.5,0.7-1,1.4-1.5,2.2c-0.4,0.7-0.8,1.4-1,2.1c-0.7,0.7-1.5,1.2-2,1.6c-0.7,0.5-1.4,0.6-2.1,0.3c-0.2-0.1-0.4-0.5-0.5-1
			c-0.1-0.5-0.1-1.2-0.1-1.9c0-0.8,0.1-1.6,0.2-2.4c0.1-0.8,0.2-1.6,0.4-2.4c0.1-0.8,0.3-1.4,0.4-2c0.1-0.6,0.2-0.9,0.2-1.1
			c-0.9-0.2-1.8-0.1-2.7,0.1c-0.9,0.3-1.7,0.7-2.5,1.3c-0.8,0.6-1.6,1.4-2.3,2.2c-0.7,0.9-1.4,1.9-2.1,2.9c0,0,0,0,0,0.1
			c-0.8,0.5-1.9,1.3-3.6,2.3c-0.5,0.3-1.3,0.7-1.8,0.9c-1.5,0.5-2.8,0.3-3.1-0.6c-0.3-1-0.3-1.9-0.1-2.9c0.2-0.8,0.5-1.9,1-3
			c0.5-1,1.1-2,1.7-2.6c1.6-1.7,2.9-2,3.3-2.2c0.4-0.2,0.6-0.3,0.6-0.5c-0.7-0.2-1.3-0.2-2-0.1c-0.7,0.1-1.4,0.5-2.3,1.1
			c-0.6,0.5-1.2,1.2-1.8,2.2c-0.6,1-1.1,2-1.6,3.2c-0.4,1.2-0.7,2.4-0.8,3.6c-0.1,1.2,0.1,2.1,0.4,2.7c0.9,1.5,2.1,1.4,2.7,1.4
			c1.5-0.2,2.6-0.9,3.9-1.9c1.2-0.9,2.1-1.6,2.8-2.3c-0.1,0.4-0.3,0.8-0.4,1.2c-0.2,1-0.3,1.9-0.1,2.6c0.3,0.8,0.8,1.2,1.5,1.2
			c0.7,0,1.4-0.3,2.2-0.9c0.8-0.6,1.6-1.4,2.5-2.4c0.8-1,1.6-2.1,2.3-3.3c0,0.2-0.1,0.5-0.2,1c-0.1,0.5-0.1,0.9-0.2,1.5
			c0,0.5-0.1,1.1,0,1.6c0,0.5,0.1,1,0.2,1.3c0.3,0.5,0.7,0.8,1.1,0.8c0.5,0,1,0,1.5-0.3c0.5-0.2,1-0.5,1.5-0.9
			c0.5-0.4,0.8-0.7,1.1-1c0.1-0.1,0.2-0.2,0.3-0.5c-0.1,0.5-0.2,0.9-0.1,1.3c0,0.7,0.2,1.3,0.7,1.8c0.7,0.5,1.5,0.6,2.4,0.2
			c0.9-0.4,1.8-1,2.6-1.9c0.9-0.9,1.7-1.8,2.5-2.9c0.7-1,1.9-2.9,1.9-2.9c0-0.1,1.9-3.3,2.6-4.4c0.4-0.6,0.8-1.4,1.4-2.4
			c0.5-0.9,1-1.9,1.5-3.1c0.7,0.1,1.5,0.1,2.2,0.2c0.7,0,1.5,0,2.2,0c0.4,0,0.7,0,1.1-0.1c0.4,0,0.7-0.1,1.1-0.2c0.1,0,0.1,0,0.2,0
			c0,1,0.2,2,0.6,2.9c0.4,1,1.1,1.7,1.7,2.4c1.4,1.3,2.8,1.9,4,2.4c1.2,0.5,2.2,0.7,2.9,0.9c0.7,0.2,1.1,0.2,1.1,0.2
			c0.1,0,0.2-0.1,0.2-0.2C155.7,78.4,155.6,78.3,155.5,78.3z M116.6,79.6c-0.6,1.2-1.3,2.3-2.1,3.2c-0.8,0.9-1.5,1.6-2.1,2.1
			c-0.7,0.5-1.2,0.8-1.5,0.6c-0.4-0.2-0.4-0.8-0.3-1.5c0.1-0.8,0.4-1.6,0.9-2.5c0.5-0.9,1.1-1.9,2-2.9c0.8-1,1.8-1.9,3-2.6
			c1-0.6,1.5-0.4,1.5-0.4C117.8,77,117.3,78.4,116.6,79.6z M132.4,77.8c-0.4,1-1,2.4-4,6.2c-0.3,0.3-0.6,0.5-0.8,0.7
			c-0.2,0.2-0.4,0.4-0.6,0.5c-0.2,0.2-0.4,0.3-0.6,0.5c-0.2,0.2-0.5,0.3-0.8,0.5c-0.3,0.1-0.6,0.1-0.7-0.1c-0.2-0.1-0.3-0.3-0.3-0.5
			c-0.1-0.2-0.4-1.2,0.6-3.3c0.4-0.8,0.9-1.7,1.7-2.7c0.7-0.8,1.2-1.5,1.7-2c0.5-0.5,0.9-0.9,1.2-1.2c0.3-0.3,0.6-0.5,0.9-0.6
			c0.3-0.1,0.4-0.1,0.7-0.2C132.8,75.6,132.7,77.1,132.4,77.8z M132.3,67.4c-1.3-0.6-2.4-1.5-3.3-2.6c-0.2-0.3-0.4-0.6-0.6-0.8
			l-0.1-0.2l-0.1-0.2l-0.1-0.2c0,0-0.1-0.1-0.1-0.1l-0.1-0.1c-0.3-0.6-0.5-1.3-0.7-1.9c-0.1-0.7-0.1-1.3,0-1.9
			c0.1-0.6,0.4-1.2,0.8-1.7c0.4-0.5,0.9-1,1.4-1.3c0.5-0.4,1.1-0.7,1.7-0.8c1.3-0.4,2.6-0.5,3.8-0.4c1.2,0.1,2.3,0.6,3,1.4
			c0.4,0.4,0.6,0.9,0.8,1.4c0.1,0.3,0.2,0.5,0.2,0.8c0,0.3,0.1,0.5,0.1,0.8c0,0.1,0,0.3,0,0.4l0,0.4c0,0.3,0,0.6,0,0.8
			c0,0.6-0.1,1.1-0.1,1.6c-0.3,2.1-0.8,4-1.5,5.7c-0.1,0.2-0.2,0.5-0.3,0.7C135.5,68.7,133.8,68.2,132.3,67.4z M146.4,66.4
			c0.2-0.5,0.5-1,0.9-1.5c0.3-0.5,0.8-0.9,1.2-1.2c0.5-0.3,1-0.4,1.4,0c0.1,0.1,0.2,0.2,0.3,0.3c0,0.1,0.1,0.1,0.1,0.2l0.1,0.1
			l0,0.1c0.1,0.3,0.2,0.5,0.3,0.8c0,0.3,0,0.6-0.1,0.8c-0.1,0.3-0.3,0.5-0.5,0.8c-0.4,0.5-0.9,0.8-1.5,1.2c-0.9,0.5-1.9,0.8-2.9,1.1
			C145.8,68.1,146.1,67.2,146.4,66.4z"/>
	</g>
</g>
</svg>
